<mxfile host="app.diagrams.net" modified="2021-06-18T01:34:47.774Z" agent="5.0 (Windows NT 10.0; Win64; x64) AppleWebKit/537.36 (KHTML, like Gecko) Chrome/91.0.4472.106 Safari/537.36" etag="JA9Rupg6JtFzm4hr5c-K" version="14.8.0" type="github">
  <diagram id="Gjpwpgpd_xxm8JVQ4IMp" name="Page-1">
    <mxGraphModel dx="1564" dy="882" grid="1" gridSize="10" guides="1" tooltips="1" connect="1" arrows="1" fold="1" page="1" pageScale="1" pageWidth="850" pageHeight="1100" math="0" shadow="0">
      <root>
        <mxCell id="0" />
        <mxCell id="1" parent="0" />
        <mxCell id="Y-vvo44MhsxP3mwZvi4m-1" value="" style="rounded=0;whiteSpace=wrap;html=1;strokeWidth=2;" vertex="1" parent="1">
          <mxGeometry x="40" y="40" width="1157" height="830" as="geometry" />
        </mxCell>
        <UserObject label="" link="https://github.com/YamesYamerson/CSCI3130DesignDocs.git" id="Y-vvo44MhsxP3mwZvi4m-2">
          <mxCell style="rounded=0;whiteSpace=wrap;html=1;strokeColor=#36393d;fillColor=#eeeeee;strokeWidth=2;" vertex="1" parent="1">
            <mxGeometry x="40" y="40" width="1157" height="150" as="geometry" />
          </mxCell>
        </UserObject>
        <mxCell id="Y-vvo44MhsxP3mwZvi4m-3" value="" style="group" vertex="1" connectable="0" parent="1">
          <mxGeometry x="50" y="50" width="142.38" height="140" as="geometry" />
        </mxCell>
        <mxCell id="Y-vvo44MhsxP3mwZvi4m-4" value="" style="shape=image;verticalLabelPosition=bottom;labelBackgroundColor=#ffffff;verticalAlign=top;aspect=fixed;imageAspect=0;image=data:image/png,iVBORw0KGgoAAAANSUhEUgAAAgAAAAIACAYAAAD0eNT6AAAABmJLR0QA/wD/AP+gvaeTAAAZnUlEQVR42u3dXayl1X0e8GedwWMsG9Qp1GKkjOR4ZPGhhC8rrkBBcTFRc1FfcFFHgFxfEENRk5tKbSLfh9jORaS4TYCWixgDMpXlC/vGsqFYRKAmsQ00ghlFOJbG0iAXeypGyAR7vHLx7jmeM7PPnL3P/nrfd/1+0ggPPrPP3uvdh/XMev5771JrDQDQli1LAADtEQAAoEECAAA0SAAAgAYJAADQIAEAABokAABAgwQAAGiQAAAADRIAAKBBAgAANEgAAIAGCQAA0CABAAAaJAAAQIMEAABokAAAAA0SAACgQQIAADRIAACABgkAANAgAQAAGiQAAECDBAAAaJAAAAANEgAAoEECAAA0SAAAgAYJAADQIAEAABokAABAgwQAAGiQAAAADRIAAKBBAgAANEgAAIAGCQAA0CABAAAaJAAAQIMEAABokAAAAA0SAACgQQIAADRIAACABgkAANAgAQAAGiQAAECDBAAAaJAAAAANEgAAoEECAAA0SAAAgAYJAADQIAEAABokAABAgwQAAGiQAAAADRIAAKBBAgAANEgAAIAGCQAA0CABAAAaJAAAQIMusQTLU0q5MsnVSa5J8oEkl53z6/Lzfn/210ErBzTqnSSnp/x687zf/yDJsSTHa61vWLblKLVWqzDPgpVySZIPptvkr8kvN/yrk1xhhQBW6sdJjmcSCCb/PJbk+7XWn1ue2QkAey1QKVtJbkzysSS3J7ktyXutDECvvJXkuSTPJHk6yYu11l9Ylt0JANMWpZTr0m32tyf5aJJDVgVgUE4leTZdIHim1vqKJdlJAEhSSjmQ5I4k9yT57SRXeWoAjMrrSb6Z5PEk36q1nml9QZoOAKWUG5J8MsndSQ77+QBowskkTyR5rNb6UquL0FwAKKUcTvc3/U8mud7PAUDTXk7yWJLHa60nW3rgTQSAySDfnUnuSzfMd8BzHoBznEk3PPhIkq+2MEA46gAw6fbvSvKZJNd6fgMwg1eTPJjkyTHPCowyAJRS3pXkU0n+KMlRz2UA9uG1JJ9N8le11p+N7cGNKgCUUi5Ncm+SP0xyxHMXgCU4keRzSR6ttb49lgc1igAw+Rv/7yf5r/ESPgBW4/Ukn0/y38ZwIjD4AFBK+TdJ/nt0/ACsx6tJ/lOt9X8P+UEM9tMASylXlVK+lO5dnmz+AKzLtUmeKaV8qZQy2FPnwQWAUsqBUsofpPvwh3s8DwHYkHuSHCul/MHkVWeDMqgKoJTyr5P8ZZKbPO8A6JHvJXmg1vp/hnKHB3ECUEp5TynlL5K8EJs/AP1zU5IXSil/UUp5zxDucO9PAEopVyf5X0l+3fMLgAH4v0n+fa31eJ/vZK9PAEop9yT5u9j8ARiOX0/yd5M9rLd6GQBKKZeWUh5J8qUk7/NcAmBg3pfkS6WURyZvUtc7vasAJkf+T8Un9QEwDi8n+UTfKoFenQCUUu5Od+Rv8wdgLK5PVwnc3ac71ZsAUEr54ySPx5E/AOPzviSPT/a6Xth4BTB584SH032IDwCM3aNJ7t/0Rw1vNABMXiv55SQf93wAoCFfS/K7tdafbuoObCwAlFIOJfl6kls9DwBo0PNJ/l2t9dQmvvlGAkAp5VeSfCPJda4/AA17Jcm/rbX+cN3feO1DgKWU69KlHps/AK27Lsnzk71xrdZ6AjB5gM8l+ZeuOQBs+0mS22qtr6zrG64tAEyO/Z9PcsR1BoALnEhy67rqgLVUAJOBv2/E5g8AuzmS5BuTPXPlVh4AJi/1+3p0/gCwl+uSfH0dHym80gAweZOfL8dL/QBgVrcm+fJkD12ZVZ8APBxv8gMA8/p4uj10ZVYWACbvd+ztfQFgf+5d5WcHrORVAKWUu5I84doBwMLurrU+uewbXXoAKKV8KMl3klzmmgHAwk4n+XCt9R+WeaNLrQBKKZcmeSo2fwBYlsuSPDXZY5dm2TMAf5bkRtcKAJbqxnR77NIsrQIopXwi3Uv+AIDV+N1a61PLuKGlBIBSytEk301yuWsDACvzZpKba62vLXpDC1cApZR3p+v9bf4AsFqXp5sHePeiN7SMGYA/SXKzawIAa3Fzur13IQtVAKWUm5L8bZID/VkXABi9M0l+o9b6vf3ewL5PAEopW0keis0fANbtQJKHJnvxvixSAdyX5COuAQBsxEfS7cX7sq8KoJTy/iTHkhzq77oAwOidSnJNrfVH8/7B/Z4A/Gls/gCwaYfS7clzm/sEoJTyW0meteYA0BsfrbV+e54/MFcAKKW8K8lLSa611gDQG68muaHW+rNZ/8C8FcDvx+YPAH1zbbo9emYznwBMPoXoH5NcZZ0BoHdeT/Krtda3Z/nieU4A7o3NHwD66qp0e/VMZjoBmHT/ryU5Yn0BoLdOJDk6yyzArCcAn4rNHwD67ki6PXtPe54AlFIOJDme5Kh1BYDeey3J1bXWMxf7ollOAO6KzR8AhuJour37oi56AjD5kIG/j5f+AcCQvJrk12qtv9jtC/Y6AbgzNn8AGJpr0+3hu9orANw3nrUAgKZcdA/ftQIopRxO93KCA9YQAAbnTJIjtdaT0/7Pi50A3BObPwAM1YF0e/lUFwsAn7R2ADBou+7lUwNAKeWGJNdbNwAYtOsne/oFdjsB8Ld/WnF/kncsAzBiU/f0C4YAJ+/8dyLJYWvG2NVaSynlliRf8ZwHRupkumHAHe8MOO0E4I74DyENqbW+kOTDSV6wGsAIHU63t+8wLQDcY61ozeRlMh9N8ojVAEbogr19WgVwMt1nCsPo1VrLBT8UpdyX5AtJDlohYCRer7XuON3fcQJQSrkuNn8aV2t9JN1pwEmrAYzEVZM9ftv5FcDt1gjMBQCjtGOPFwBgF+YCgJHZscdvzwBMPvr3jSSHrBGtmDYDMI25AGAETiW58uxHBJ97AnBjbP4wlbkAYAQOpdvrk+wMAB+zNrA7cwHACGzv9ecGAP0/7MFcADBw23t9qbWmlHJJkv+f5L3WhpbMOgMwjbkAYIDeSvIvaq0/P3sC8MHY/GEu5gKAAXpvuj1/uwK4xprA/MwFAAN0TSIAwMLMBQADsyMAXG09YP9qre/UWu9Pcn+Sd6wI0GNXJ04AYKnMBQAD4AQAVsFcANBz3QlAKeXKJFdYD1gecwFAj11RSrlyK/72DythLgDosau3ov+HlTIXAPTQNVtJPmAdYLXMBQA984GtJJdZB1g9cwFAj1wmAMAamQsAekIAgE0wFwBs2GVbSS63DrB+5gKADbrcCQBskLkAYENUALBp5gKADRAAoC/MBQBrJABAn5gLANZEAIC+MRcArMFlJUm1DrSq1lr6fP9KKfcl+UKSg64WsEwCAE3rewBIklLKLUm+kuSwKwYsy5YlgH4zFwCsggAAA2AuAFg2AQAGwvsFAMtkBoCmDWEGYOoPrrkAYEFOAGCAzAUAixIAYKDMBQCLEABgwMwFAPtlBoCmDXUGYOoPs7kAYA5OAGAkzAUA8xAAYETMBQCzEgBgZMwFALMwA0DTxjQDMPUH3FwAsAsnADBi5gKA3QgAMHLmAoBpBABogLkA4HxmAGja2GcApv7QmwsA4gQAmmMuAEgEAGiSuQBAAIBGmQuAtpkBoGktzgBM/Q+BuQBojhMAwFwANEgAAJKYC4DWCADANnMB0A4zADTNDMDuzAXAuDkBAKYyFwDjJgAAuzIXAOMlAAAXZS4AxskMAE0zAzAfcwEwHk4AgJmZC4DxEACAuZgLgHEQAIC5mQuA4TMDQNPMACzOXAAMkxMAYCHmAmCYBABgYeYCYHgEAGApzAXAsJgBoGlmAFbDXAD0nxMAYOnMBUD/CQDASpgLgH4TAICVMRcA/WUGgKaZAVgfcwHQL04AgLUwFwD9IgAAa2MuAPpDAADWylwA9IMZAJpmBmCzzAXA5jgBADbGXABsjgAAbJS5ANgMAQDYOHMBsH5mAGiaGYD+MRcA6+EEAOgVcwGwHgIA0DvmAmD1BACgl8wFwGqZAaBpZgCGwVwALJ8TAKD3zAXA8gkAwCCYC4DlEgCAwTAXAMtjBoCmmQEYLnMBsBgnAMAgmQuAxQgAwGCZC4D9EwCAQTMXAPtjBoCmmQEYF3MBMDsnAMBomAuA2QkAwKiYC4DZCADA6JgLgL2ZAaBpZgDGz1wATOcEABg1cwEwnQAAjJ65ALiQAAA0wVwA7GQGgKaZAWiTuQBwAgA0yFwACABAo8wF0DoBAGiWuQBaZgaAppkB4CxzAbTGCQBAzAXQHgEAYMJcAC0RAADOYS6AVpgBoGlmALgYcwGMmRMAgF2YC2DMBACAizAXwFgJAAB7MBfAGJkBoGlmAJiXuQDGwgkAwBzMBTAWAgDAnMwFMAYCAMA+mAtg6MwA0DQzACyDuQCGyAkAwILMBTBEAgDAEpgLYGgEAIAlMRfAkJgBoGlmAFgVcwH0nRMAgBUwF0DfCQAAK2IugD4TAABWyFwAfWUGgKaZAWCdzAXQJ04AANbEXAB9IgAArJG5APpCAACABl1iCQDWp5RyON0cwC1Wg01yAgCwJpMhwO/E5k8PCAAAa1BKuS/Js/EKAHpCBQCwQqWUg0m+kOQ+q0GfCAAAK6Lvp89UAAAroO+n7wQAgCXT9zMEKgCAJdH3MyQCAMAS6PsZGhUAwIL0/QyRAACwAH0/Q6UCANgHfT9DJwAAzEnfzxioAADmoO9nLAQAgBnp+xkTFQDAHvT9jJEAAHAR+n7GSgUAsAt9P2MmAABMoe9n7FQAAOfQ99MKAQBgQt9PS1QAANH30x4BAGievp8WqQCAZun7aZkAADRJ30/rVABAc/T9IAAAjdH3Q0cFADRB3w87CQDA6On74UIqAGDU9P0wnQAAjJa+H3anAgBGR98PexMAgFHR98NsVADAaOj7YXYCADAK+n6YjwoAGDR9P+yPAAAMlr4f9k8FAAySvh8WIwAAg6Pvh8WpAIDB0PfD8ggAwCDo+2G5VABA7+n7YfkEAKDX9P2wGioAoJf0/bBaAgDQO/p+WD0VANAr+n5YDwEA6A19P6yPCgDYOH0/rJ8AAGyUvh82QwUAbIy+HzZHAAA2Qt8Pm6UCANZK3w/9IAAAa6Pvh/5QAQBroe+HfhEAgJXT90P/qACAldH3Q38JAMBK6Puh31QAwNLp+6H/BABgqfT9MAwqAGAp9P0wLAIAsDB9PwyPCgBYiL4fhkkAAPZN3w/DpQIA5qbvh+ETAIC56PthHFQAwMz0/TAeAgAwE30/jIsKALgofT+MkwAA7ErfD+OlAgCm0vfDuAkAwAX0/TB+KgBgm74f2iEAAEn0/dAaFQCg74cGCQDQOH0/tEkFAI3S90PbBABokL4fUAFAY/T9QCIAQFP0/cBZKgBogL4fOJ8AACOn7wemUQHAiOn7gd0IADBS+n7gYlQAMDL6fmAWAgCMiL4fmJUKAEZC3w/MQwCAEdD3A/NSAcCA6fuB/RIAYKD0/cAiVAAwQPp+YFECAAyMvh9YBhUADIS+H1gmAQAGQN8PLJsKAHpO3w+sggAAPabvB1ZlK8k7lgH6pZRysJTycJKHkxy0IsCSvXNJktNJrrAW0A/6fmANTm+lCwBAD+j7gTURAKAv9P3AGp0+WwEAG+L1/cAGCACwSfp+YENObyV50zrA+un7gQ160wwAbIC+H9gwFQCsk74f6AkBANZF3w/0yOmtJD+wDrBa+n6gZ36wleSYdYDV0fcDPXSsJLkyyf+zFrSo1lpWddv6fqDH/lWptaaU8kZ8HgANWlUA0PcDPfbjWuuVZz8O+Lj1gOXQ9wM9dzzpPg44MQcAS6HvBwbgWJJcMvmNEwBYgL4fGJDjyS8DgBMA2Cd9PzAwxxIVACxE3w8M0I4A8P0kb1kTmJ2+Hxigt9Lt+V0AqLX+PMlz1gX2Vko5WEp5OMnDSQ5aEWBAnpvs+dsnAEnyjHWBi5v0/c/GsB8wTNt7/bkB4GnrArvT9wMjsL3Xl1pr9z9K2UryRpJD1odWzPpOgJO+/wtx5A8M16kkV9Zaf5GccwIw+RfPWh/4JX0/MCLPnt38k50VQGIOALbp+4GR2bHHCwAwhb4fGKEde/z2DMD2vyjlZJKrrBMtmDYDoO8HRuj1WuuO9yzZmvJF37ROtEjfD4zYBXv7tADwuHWiNfp+YOQu2NunVQAHkpyItzelAbXWMun7v+I5D4zUySRHaq1nzv2XF5wATL7gCetFC7yfP9CAJ87f/JMpJwBJUkq5IcmL1gwABu/GWutL5//LaTMAmXzhy9YMAAbt5Wmbf7JLAJh4zLoBwKDtupdPrQCS7anoE0kOWD8AGJwz6Yb/Tk77P3c9AZj8AZ8QCADD9PRum39y8QogSR6xfgAwSBfdw3etAJLtjwj++yTXWkcAGIxXk/zauZ/+d76LngBM/uCD1hEABuXBi23+yR4nAMn2OwMeT3LUegJA772W5Oppb/5zrr1mAM6+M+BnrScADMJn99r8kxlOAJKklPKudIniiHUFgN46keRorfVne33h1iy3Nrmhz1lXAOi1z82y+SczngAkSSnl0iT/mOQq6wsAvfN6kl+ttb49yxdvzXqrkxv8vPUFgF76/KybfzLHCUCyPQvwUrwvAAD0yatJbpj1+D+Z4wQg2Z4FeMA6A0CvPDDP5p/MGQCSpNb67SRftNYA0AtfnOzNc5mrAtj+Q6W8P8mxJIesOwBszKkk19RafzTvH9zaz3ebfKPPWHcA2KjP7GfzT/Z5ApBsf1DQC0k+Yv0BYO3+Jskte73n/272HQCSpJRyU5K/TXLAdQCAtTmT5Ddqrd/b7w1sLfLdJ9/4z10HAFirP19k808WPAFIklLKu5M8n+Rm1wMAVu67SW6ttf7TIjeycABIklLK0ckdutx1AYCVeTPJzbXW1xa9oa1l3JvJHfm06wIAK/XpZWz+yZICQJLUWp9K8pBrAwAr8dBkr12KpVQA2zfWfWLgC0ludJ0AYGleTPeSv7eXdYNLDQBJUkr5UJLvJLnM9QKAhZ1O8uFa6z8s80a3ln0vJ3fwftcLAJbi/mVv/skKAkCS1FqfTPKgawYAC3lwsqcu3dIrgB03Xsr/THKv6wcAc3u01vp7q7rxVQeAA0m+muTjriMAzOxrSe6stZ5Z1TdYaQBIklLKe5J8K8mtricA7On5JHfUWn+6ym+y8gCQJKWUQ0n+Osl1risA7OqVJL9Zaz216m+0lgCQJKWUX0mXao64vgBwgRPp3uP/h+v4ZlvrelSTB/Q7SX7iGgPADj9J8jvr2vyTNQaAJKm1vpLktnQpBwDo9sTbJnvk2myt+1FOHuCt6XoOAGjZK+mO/de+J25t4tFOjjh+M91MAAC06Pl0A38/3MQ339rUo55MON6R7rWOANCSr6V7qd+pTd2BrU0++slrHO9M8qjnAgCNeDTdm/z8dJN3YmvTq1BrPTN5q0OfHQDA2D1Ya/29Vb7D36zW9j4AM92ZUu5K8nB8lDAA43I63af6PdmXO9SrAJAkpZQPJXkqyY2eLwCMwItJPrGKj/RdxMYrgPNNFuiWJA95zgAwcA8luaVvm3/SwxOAHXeulE8k+R9JLvccAmBA3kzy6VrrU329g70OAElSSjmarhK42fMJgAH4broj/9f6fCd7VwGcb7KAtyb5syQbn5oEgF2cSbdX3dr3zT8ZwAnAjjtbyk3p+pSPeJ4B0CN/k+Q/1lq/N5Q73PsTgHNNFvaWJA8kOTWk+w7AKJ1KtyfdMqTNPxnYCcCOO17K+5P8aZL/4PkHwAZ8Mcl/qbX+aIh3frABYPsBlPJbSf4yybWeiwCswatJHqi1fnvID2JQFcA0kwtwQ5L/nOR1z0sAVuT1dHvNDUPf/JMRnADseDClXJrk3iR/mOSI5yoAS3AiyeeSPFprfXssD2pUAWD7QZXyriSfSvJHSY567gKwD68l+WySv6q1/mxsD26UAWD7wZVyIMldST4TMwIAzObVdJ9Q+2QfPrVvVUYdALYfZClbSe5Mcl+SjyU54PkNwDnOJHk6ySNJvlpr/cXYH3ATAWDHAy7lcJJ7knwyyfWe8wBNeznJY0ker7WebOmBNxcAdjz4Um5IFwTuTnLYzwFAE04meSLJY7XWl1pdhKYDwPYidLMCd6Q7GfjtJFf5+QAYldeTfDPJ40m+NeZuf1YCwLRFKeW6JLdPfn00ySGrAjAop5I8m+SZJM/UWl+xJDsJAHstUDdAeGO64cHbk9yW5L1WBqBX3kryXLoN/+kkL7YwyLcIAWDeBSvlkiQfTHLN5NfV5/zzCisEsFI/TnI8ybFz/nksyfdrrT+3PLMTAJa5mKVcmV8Ggg8kueycX5ef9/uzvw5aOaBR7yQ5PeXXm+f9/geZbPi11jcs23IIAADQoMF/GBAAMD8BAAAaJAAAQIMEAABokAAAAA0SAACgQQIAADRIAACABgkAANAgAQAAGiQAAECDBAAAaJAAAAANEgAAoEECAAA0SAAAgAYJAADQIAEAABokAABAgwQAAGiQAAAADRIAAKBBAgAANEgAAIAGCQAA0CABAAAaJAAAQIMEAABokAAAAA0SAACgQQIAADRIAACABgkAANAgAQAAGiQAAECDBAAAaJAAAAANEgAAoEECAAA0SAAAgAYJAADQIAEAABokAABAgwQAAGiQAAAADRIAAKBBAgAANEgAAIAGCQAA0CABAAAaJAAAQIMEAABokAAAAA0SAACgQQIAADRIAACABgkAANAgAQAAGiQAAECDBAAAaJAAAAANEgAAoEECAAA06J8BZpLsG0gJqJ4AAAASdEVYdEVYSUY6T3JpZW50YXRpb24AMYRY7O8AAAAASUVORK5CYII=;" vertex="1" parent="Y-vvo44MhsxP3mwZvi4m-3">
          <mxGeometry x="10.194272076372318" y="27.184466019417474" width="112.81553398058252" height="112.81553398058252" as="geometry" />
        </mxCell>
        <mxCell id="Y-vvo44MhsxP3mwZvi4m-5" value="" style="group" vertex="1" connectable="0" parent="Y-vvo44MhsxP3mwZvi4m-3">
          <mxGeometry width="142.38" height="135.92233009708738" as="geometry" />
        </mxCell>
        <mxCell id="Y-vvo44MhsxP3mwZvi4m-6" value="" style="ellipse;whiteSpace=wrap;html=1;aspect=fixed;" vertex="1" parent="Y-vvo44MhsxP3mwZvi4m-5">
          <mxGeometry x="24.48684075573551" y="21.400276893378585" width="86.9446829289294" height="86.9446829289294" as="geometry" />
        </mxCell>
        <mxCell id="Y-vvo44MhsxP3mwZvi4m-7" value="" style="shape=image;verticalLabelPosition=bottom;labelBackgroundColor=#ffffff;verticalAlign=top;aspect=fixed;imageAspect=0;image=data:image/png,iVBORw0KGgoAAAANSUhEUgAAAgAAAAIACAYAAAD0eNT6AAAACXBIWXMAAAsSAAALEgHS3X78AAAgAElEQVR42u3dB7RlVZ3n8V1FKKDbAAhFDiZQuwfQHgUEUdtWQIliTq0iwYDocuxpW12jiKFtBQyrEWgjYAsU2JIlOCqoqGtmHAyAEVBbJRUZildVs4/37HnnnXfvi+fee8Lnu9Z31aOqePWq3jn7/9v/vc8+IQAAAAAAAAAAAAAAAAAAAAAAAAAAAAAAAAAAAAAAAAAAAAAAAAAAAAAAAAAAAAAAAAAAAAAAAAAAAAAAAAAAAAAAAAAAAAAAAAAAAAAAAAAAAAAAAAAAAAAAAAAAAAAAAAAAAAAAAAAAAAAAAAAAAAAAAAAAAAAAAGBcLCm4tOQ6c7T8/xU/JwAAGFFBLxbwdXOX1qQgp68vfV3rlIIDAACYYca+TqGAzrdwZsV2/ehG0U2j20d3iu4a3SP67Oh+0RdED40eEn1R9GW5L8p/7tD892S/91n5/7tr/rm2zz/3RvmftXQBf891SiFBQAAAdGYmv84ci3z26xtEl0d3y4vyq6Jvi34wekr03OgV0R9Eb4j+MXp39L7og9GHomuiaxfomvxzPJh/zrvzP+OG/M+8Iv8aTsm/prflX+N++de8ef53mE84EAwAAI0u9qmgzVTMsl9/ZPRJ+cz72OhJ0RXR70RvjN4TnVhEEU+FPLl6Fou/dzF/5kT+td+Y/12yv9OJ0XdGD4s+Jfqo/N9gpn/HhXZFAAAYycw+zV77kf38ZqHXUn9N9CPR86I/ia6MrppjEZ/IZ+Sr8h8fyn9uYkABH4bpz5kofD3Fr2lijuEh+3135v8G2b/FP0ePCL2lh61mCAZLdAoAAOOc3a8zw6x+u+j+0f8ePSP6v6J3zVIY1/QppIMK+tqKZulV2O9rKgeGYnBZlf/cTJ8z6xz8NHpO9L2htzfhcaG396Afc11WAQCgsoK/SXSf6DvyYp/NaO+fZeabivzqmhf3UYSE1aXgM+hzZPsQfhE9Kw9W+4beHgOBAABQGaml348toweFXsv6qugds8zoi23xfoV+bcedaanhoVk6Bnfm34OPRl+Sd14GBYKlLmsAwKBZfr8ika3dZ4/InRC9JvR2wvcrRg8NmNW3cUY/qmCwdoZQ0O/f897o90Jvs2EWCJYPCHe6AwCg6E8rBNlja3tH3x29MHp7n0KzOi9CE4r92JcRJmboEmQbLLNHFd8T3Su6YZ9rYLYnNQAALSn6/Qb8bJb/wuhnQm+deb4FX4GuT5dgpkCQPZL42ejLQ28pp4zOAAB0YKafnWx3VPT8PrP84vr9agW/0fsJ0hMIa/p0B7Lv/VuijxUGAKA99FvTzx4lOyZ6Ueg9atZvlq/gt7dDkPYQlA9Wyp7ayJYK3tonDKQACQCoMUv7DNZZq/f1edG/L/TfuDfoWXu2ew9B+v4Xf98DeRg4OrrtHEIlAGBM9JuhPTz0doF/JfRavTMVfRv3hIHiUkHx92VPfHw1v5Ye3icMWCIAgJrM9v8m9B7XuylMP3xH0ediwsBvo5+MPr3PdagrAAAjoFz0sxfKvDH0ntFX9DmMZYLynoHsrIFsL8mWs1ybAIBF0q/Nn71Y5+ToLWF6i3/QEbvkQsPA6jD9aYLs6ZHP9ukKWB4AgEVSbvNvFH116B3/Wi76E8HufY7m8cJ+SwTfDr3Npn9Zun4tDwDAPAt/ceDcOvpP0V+F6c/qrw5a/KxPV+A30fdFdxAEAGDulFunu0RPDb2XvhTX9ge9XIesS1cgO2fic9EnF65nZwoAQJ/CXyRbU/1KmLr5ymyfTeoKFH/9vOgzZ7nmAaDThf+A6MVh+vq+tX028eTB8j6BK/NrXBAAoPDnHBimbuxbE6aurZrts8nLA6l7lX796tB7xbQgAKAzZBuhlsxQ+CcUfob2Lg+k/Svp17OzKw4r3A/2CABoZeEv7oLet0/hn1D42dEgkHUEDpjhfgGAxlGe0ewZvUThpyDQNwhcFt2ncL84UAhAIykW/r+KnhOmvnpX4acg0D8IZPfKrgPuJQBoROFfHj0xuirY3EfOFgSKmwWzQPCpMPV9A4IAgFpSXLdcP/rOMPWcfoWfnHsQKL5vILuXluX31pJgfwCAmlBe58929l9bGMBWKfzkooPAz8LURwftDwAwVoqFf6foV8P0k/sUfnLhQaB8suD5obenpt89CAAjmfWnNuSG0fdH7w9Td/aXD0QxsJMLO0yofF9lXbXj83svBI8NAhjDrH+/vDVpnZ8c/bLAz8PU8wPWNTwBGAbFU/y2in4xWOcn6xAEzoxu06c7BwCLpjizeF3o7UwuPs+v8JOjDwITYXKfzW3RN+gGABjGrH/H6EVm/WTtugGrCr+WvU3zcboBAKqa9R8dvavPrEPhJ+v3tMA90WN0AwDMl+KsYbsw9ex+m/zI5uwNyO7dHfp08wBgGsUd/q+M3hE80082uRuwMvraAfc4AEwZGDYJvV3FZv1kc0PA2lI34MvRTYUAAEWKm4SeE705WOsn29QNSE/qZPf2cwfc+wA6RnFz0PuCHf5kF54UOH7AGACgYy3/bKPfN8LUd5Mr/GQ7zw1IH38r9B7tTWOBDYJAx1r+2dvFihv9zPrJ7nQDsnv/YEsCQLdm/SFvA/bbLKTwk+0NAv3u+Q8PGCMAtIS01rc8ellwlC9pSWByo+/l0S1KYwWAhlM82Gfv6O+DjX6kEDB9SeB30b0KywH2BQANprimd0SYustfy58UBMpjQvZzRw4YQwA0hOJa3omFG13Ln+SgJYH0858eMJYAqDlpDS871e/K4GAfkvM/OOiKfAwpjikAGlD8nxi9IVjvJ7nwfQG/jD5JCADqTXGz3/PC5Ot7rfeTXMy+gLuj++Vji82BQA2Lf+KNYfqzvmb9JBfSDSieF3DUgDEHwJgo7tItHu5jsx/JqjcHfnDA2ANgxBR3534uTG7isdmPZNWbA9O48vkBYxCAERf/DaIXBef5kxz+5sC0JHBJdEMhABg9aTfuptEfhP47/Q1eJKveHFh8QuD7wWOCwFiK/7bRnwU7/UmO7wmBn0a3EQKA0RX/naM3helHeCr+JEe1JJDGnhujOwkBwPCL/1Oityr+JGsUAm6J7iYEAMMr/k8Nkwf8eMafZJ3OCrgz+jQhAKi++O8ZeidyKf4k6xoC7g29144LAUBFxf8Z0fsUf5INCAEPRJ8pBADVFP8HFX+SDQoBDwoBwOLb/mb+JJvaCdhLCADmX/yzDX/W/Ek2OQTcE91dCADmXvyfHHo7ahV/km14OuDJQgAwe/HPDvm5VfEn2aIQkI1pDgsC+pBeppEd73uT4k+yhSEgOzFwm9KYByj+kY3D9LP9FX+SbToxMHt3wKZCABDC0vzH7JW+1yj+JDsQAr6fj3nFMRDoFEsKH1+k+JPsUAi4eMBYCHSq+H9W8SfZwRDwOSEAXW79fyhMbpJZU7hRDBgk2xgC0o9pY+DxlgLQJdIjMG/Kb4DVij/JDoaA1fnHR5fGRqDVxX/fwg2xWvEn2cEQsLrwc/sJAWgz6ZGXJ0Tvyi/6CcWfZIdDQBoDs2PPn1QaK4FWkNa3Non+Ijjoh6QAUD4o6Of5GFkcM4FGU9zdemWw458kBz0ZcMWAsRNo9Oz/U4o/Sc4aAj6lC4A2kDa0HFFY77LjnyT7PxmQ9gQcWRpDgUaRNrLsHabvelX8SXLmJwP2Lo2lQKPa/ltEfx/s+CfJ+T4Z8LvocssBaCqXBev+rK492iSFXVaxH+ByZQRNbP1/SPFnxSHA18wuhoDjLQWgCaQNKwcHx/yy2kKaDYYro3fW3JWl0Ot7yCqOCz64NMYCtVz33zF6h3V/VmQ6JOWsfPB7RPRhNfUR+dd4VulrJxe7H+D26PalsRaoHd8M00/6c0NzsQHg9AbdA6cLAKwwBKTr6JvKC+pIWps6Ljjml8MJAGcUZj91PCFtSWFmdoYAwIoCQHk/wPtLYy5Qi+L/d30uWsWfVQeAOh+PukQA4JC6AMVx9TlCAOo04G0avTlY96cAIABw2PsBbgqTLw3yvgCMjdTyPDNMf+TPjUsBwPeP1T8Nk/345dIYDIyU9DjKa8LUc/6t+1MAEAA4nP0AxfcFvLo0FgMjnfnvECYf+XPOPwUAAYCje19ANvZ6NBBjG+guCR75owAgAHBcjwZe0oD7Ai1s/b8peOSPAoAAwHEtBaTr642WAjDK1v+jo3dp/VMAEAA49qWAu/Ix2VIARjLAXaj1TwFAAGBtlgIutBSAUbT+jyhceHb9UwAQAFiPpYDD8+vPAUEYysC2dfQ2rX8KAAIAa7cUkI3NW+kEoGrKZ5w78IcCgADA+h0Q9KXSmA0sitROen4hbWr9UwAQAFivpYDUCXi+pQBUOaBtGL0+OOufAoAAwLq/K+C6fMy2FIBKZv/Ha/1TABAA2JilgON0AbAY0hrSE6MP9mk3uekoAAgArN9SQPbfD0R3Lo3lwLwDwFeDZ/4pAAgAbNrZAOcJAFhM6/+QwtqSmT8FAAGAzegEpP0AB1oKwEJYFv1ZsPGPAoAAwKZuCPxxdH3lDPOd/f+D1j8FAAGAjV8KeIcuAOYzgG0RvTVMf+7fzUUBQABgM5YB0rkAt0SXN+D+QU1m/580+6cAIACwNV2AE3UBMBNpp+hflwq/2T8FAAGAzX4sMDsf4EmlsR6YFgBWmP1TABAA2LouwFkCAGYq/nub+VMAEADY2k7A04UADBq4LjX7pwAgALC1XYBLGnAfYYSkTSH7Bbv+KQAIAGz7UwH7lsZ+IFwdHPpDAUAAYNsPB/q2codiAnTkLwUAAYDdOSL4IF0AJL5j9k8BQABgZ7oAVyl7Zv8ZB5v9UwAQANi5LoAXBeHPSdDsnwKAAEB7AdCh2f+BZv8UAAQAdrYL8AJdgO6RBqorzf4pAAgA7Oy5AJc14L5ChaQToPYJnvunACAAsOunA+5Tqg3oQAA4Nzj1jwKAAMCudwFWCADdKv5PLlwEZv8UAAQAdrMLkD7eTQhoP2mjx78VBigBgAKAAMBuBoB0jZ5aqhFoGWlw2j56l9k/BQABgEJA/vGd0W0bcI9hkbP/95r9UwAQACgAlLoA79EFaDd/Ef1VmNz97yagACAAsNumWvCrvEagpbP/vw8O/qEAIACQ/Q8GerUuQHspH/tLCgACAJlqwreUyXaRHuvYI/Q/BIIUAAQA6gKkmrBHqXagBe3/U4LNfxQABABy5s2AJ1sGaAdpQNoiemuYevSvC58CgABAphCQNgPeEt28Afcb5jj7P8bsnwKAAEDOsQvwZl2A9nBNsPmPAoAAQM5tM+B3lc1mY/MfBQABgFzoZsCnlWoJGtj+/4T2PwUAAYCc5zLAiZYBms3DozcHJ/9RABAAyPmdDHhT9GHKaHNn/y8NTv6jACAAkAs7GfDFugDNIw1EKwxEFAAEAHKeISBdu2fbB9DM4r91dGUp1bm4KQAIAORcugBr8xqyVQPuPZRaNUcGm/8oAAgA5OKWAd5gGaB5fN0gRAFAACAXee9dogPQrPb/46L3a/9TABAAyEUuA9wXfYwQ0Jz2/1u1/ykACADkIgNAuobfYhmgOVwWHP1LAUAAIKu5/y5VVpvR/t8xeq/2PwUAAYCsaBngnuj2lgHq3/4/WvufAoAAQFa8DHCkZYD6Dz7nG3woAAgAZMX34Nd0AOo98CyP3qH9TwFAACArXgbIasvmQkB92/8vCZOb/wQACgACAFlFAEgvCHqRZYD6kc5pPs3AQwFAACArDgHpWv5MqeagJmwY/VX+TVpt9k8BQAAgKwoAqQPwy+gGym39Zv97l1o2AgAFAAGArHIfQObTdQHqw7r5j+8JUx//c+FSABAAyKqXAd5dqj2oAZcHp/9RABAAyOGYasvXldt6DTjZ438rg8f/KAAIAKTHATtBehTj0GDzHwUAAYAczWbAg0s1CGMMACfk35RVAgAFAAGAHFIAWJV//HEBoD58P0w9AMjFSgFAACCHtQ/ge8puPQabbYO3/1EAEADI0e0DyN4OuLV9AONv/x9m/Z8CgABAjngfwKGWAcYfAD5q/Z8CgABAjngfwEcEgPFzVfD8PwUAAYAc7T6Abym/4x1oNgue/6cAIACQo98HkNWeR9kHMHrSGczPUfwpAAgA5JhCwLNLNQkjIJ3B/M7CQCMAUAAQAMhRBIB0bb+jVJMwwoHmywYaCgACADmm+/JMSwDjYb3o9cEjgBQABAByPI8CXpfXIox4kHlM9AF7ACgACADkmPYAZDXo0boAoyM9c3mw2T8FAAGAHHMX4MBSbcIQSZst/ik4AIgCgABAjvdAoHeVahNGMMjYAEgBQAAg3ZsdXAb4sSUAjnHtL7vuJkawB0UAmP37sMZeII5xCeBH2v+jHWC2DL23MbnpOY7iXzx2etghQACY2/dhtfGAYxoP7o4u1wUYPum0pX1K3wgXJEd1s6ei9ofo/y793DCKjwAwc/G/o/CxEMBRjwvp471KNQpDIG2yOLwwCLjROerif1909+iy6A/D5GbUYRQfAWDw9+G26BOir9IJ4JjGhhQ+X1dYnsYQ1/4z/jl4AoDjKf73Rp9euCYfHv3BEEOAAND/+3Br9L8U/uzXCwEcw/iQ7vkPlyapGOIAc15hMHCDcxzFf91CIH34EDsBXQ8AsxX/9QptVyGA43oSYIU9AKNbBvhJ8AQAx1v8y12pRxb2BFQZArocAGYr/v2+D0IAx/EkwLVm/6MZXDaN3hlsAOT4i3+5+Gwc/T8Vh4CuBoD5FH8hgOPeCLgyv/91AYZEavPtFqY+euUi5DiLf7n4bFJxCOhiAFhI8RcCOM4AkF2nu5RqFSok3diHaP+zZsW/Xwj4UUUhoGsBYDHFXwjgOJcBDipdf6h47T/jbcEGQNav+JeLz2Zh8rTKxYSALgWAKoq/EMBRjx3pWn3rAq5TzPOGPqk0qJJ1Kf7la3Xz6E8XGQK6EgCqLP7l78PhQgCHaLq3T9ABGP7gskIHgDUu/lWHgC4EgGEUf50AjroDcHYD7tHGh4DvBqcAst7Fv1x8li8iBLQ9AAyz+AsBHOVpgFcr0cNlg+iNpRuYrGPxLxefLaLXLyAEtDkAjKL4CwEctuk6+k3oHQ+OIQ0s2Uyq+BZAFx/rXPzLxWer6M/nGQLaGgBGWfyFAI7iUcDsrYCbWQaoHmcAsKnFv1x8tp5nCGhjABhH8RcCOIqzAHYt1SxUGAD2c6OygcU/lP6MbaO/mGMIaFsAGGfxL4cATwew6rFlXwFgeDfsq4MNgGxm8e8XAn49hxDQpgBQh+KvE8BhbgR8Zen6QoWD5tuDRwDZ3OJfvp53CL2NQzOFgLYEgDoVfyGAw3oU8NgxXs+tDwAfDA4BYrOL/3xDQBsCQB2LvxDAKseZdO9+QAConrSecqoOAFtQ/MshYMcw+XhrOQQ0PQDUufgLAay6A3ByqWahwoHlXAGALSn+5RDw6OjNfWbObQgAdS7+5RBgYyAXEwDOacB92liuDJObAF14bHrxL4eAx0R/W+oEtGEJoO7FXyeAizXVpMuV6eEtA/xQAGDLin85BDw++rvC36HpAaApxV8IYBUB4Ptm/8Nh/egNwTHAbF/x7xcCfp//He5vcAC4v2HFXwjgYo8Dvj6vVaiYjaJ/FADY0uI/UwhoagBoYvEXAriYAPCHvFah4kFl09A7a9kxwGxr8S+HgJ0LywFfaFAA+EL+Nf+xocVfCOBCjwO+K7pJA+7VxgWA7aP3CQBsefEvh4Cdog9Gz8v/u86PF6Wv7bz8+/HEFnwfPB3A+QSArEZtJwBUHwDSQCgAsO3FvxwCsr/TRxv0dX8s+owWfR90AjjXAPBAvnwnAFQ8q9g1TH0+2kXnhivuvm1b8S9f/8tCMw4XWRom34nepsNQZusEuCeNR2kysksLr/+xD4B7FP6R3XAsDsBZ222vFhb/0OCZRBtnPykEvKHPwE8BIP24uwBQfQB4tpYbB3QA9sivkfXcLhgy6Ro7qhBCjUcs1qVnCQDVB4D9BQAOuOGOa/nME/Uai7Jr7N8FAA4Yj/YVAKpvux0gAHBAFyDzo0IARlD8M84vdJ+MRSzXpReUahcqCAAHS9wM/dfc0kbAfxECMOTi/7Uw9V0N9gEwXQNpT9JBAkD1AeCFAgCFANSk+NuQzEEB4FABoPoA8CIBgEIAFH/WPAC8SACoPgC8VADgPELAx4QAKP4cQwB4qQAgAFAIgOJPAQCWACgEQPGnJQAsJADYBMiFhoCPCwFQ/DmiAGAT4BACgMcAuZgQcJIQAMWfIwgAHgMcQgBwEBAXGwI+IQRA8eeQxhsHAQ3x5nQUMIUAKP50FHAHb1AvA2JVIeCTQgAUfw4pAHgZ0BBuUq8DphAAxZ9eB9zBG3XXwuDt5qQQAMWfdRtfHoruIgBURxqYd44+6AalEADFnzUdWx6IPt54Un0A2D56n5uUQgAqKP7nK/4cwriS1ajtjCXVB4BNo3e7UTmkEPApIUDxJxc5ptwV3cQ4Uj0bRf8YJg8DctFRCIC2P+tgqkn/mdcqVMz60RsEAAoBUPxZ0wBwXV6rMIQb+Qf5P/KEC45DDAGfFgIUf3IeprHjGmPG8LhCAOCIQsDJQoDiT84zAFzm1queNACfGyaftXQDc1gh4KH8438VAhpf/G344yjGjjRmnGO8GN4NfYoAwBGHgM8IAWb+5Cw+VOocOgSoQtbNfzy+zw1NCgFQ/DnOMWNV/vEHSjULFQaAt+kAcEwh4BQhQPEnZ1kCOFYAqJ70XuVXhckNF25oCgFQ/FmHsSJtAnxFqWahwht8v8I/uJuaQgBs+GMdxol0ne3b57pERTf5bsEbASkEQPFn/cYIbwIcEmmQ3Tx6j5ubNQgBpwoB2v5k4VrL3lWzmTFheGwQvTE4DphCgOKv+LNexwD/OrrM7TlcvhNsBGQ9Q4C2n+LP7m4AvMrtOfxlgHOCRwFZrxBwmhCg+LPzjwCerRs4PNJjFScVbnwXIOsSAj4rBIys+NvwxzqZatEJpVqFCkkHKxyrA8CahoDPCwFm/uxsB+CYUq3CEDoAh4TJjRdufAoBir9rkeMcA9ImwIN0AIY/EDgLgEKA4u/+pzMAOkTaWLFJ9E4DAIUAxZ+syb2/MrpxqVZhSHsBfmIZgA0IAV8QAhR/dqL9f63W/+i6AOcFGwEpBCj+5HhN9/kKs//hkxLWR/oMDKQQoPiTo7zX0yOAHyp0qDHkAHB4cBogmxUCvigEKP5s7SmAryvVKAxxkHhGn8GWFAIUf3LU93jmXu7r0e0B2DJMfSugAYJCQPOLvxP+2KR7u/gWwOX2AIx2KeDa4EkANjMEfEkIUPzZmicAfqT1P/ouwJlh6i5MUgjQ9idH/QTA6cL86Ei7LN8VPAnAZoeAMzsaAhR/tukJgH8s1SYMuf2fcZAlAAoBij855j0AB5RqE0awBPDo6APBRkA2PwR8uSMhQPFn24p/VoN2LNUmjID1otfrAlAIUPzJEd+/aQPgz/JahDF0AWwEpBCg+JPj2gB4RoeW72pD2mzx34J3ArBdIeDfWxYCFH+28b5N9+s7SjUJIxxUnmMPAIUAxZ8c0x6AZ+kAjG8JYLPQew+zEEAhQPEnR7n+f0d001JNwoi5Kv9mTLg4KQTUrvg74Y9tM9Wabyq/4yM9c/nR4EAgtjcEfKVhIcDMn105AOgjpVqEMQSAw4JHASkEKP7kaJcADhEAxr8PYJvgzYAUAhR/cnSb/7Kas7X1/3pwjX0A7EAIOLumIUDxZ9fW/7+r7NZnGeDj9gFQCBh78bfhj11Z//+49n99AsAh9gGwAyEgDT4rahICzPzZtfZ/Wv8/WACozz6A5cF5AOxWCDh3zCFA8WdX1/+z5/83t/5fLy6zD4BCgOJPDnn9/1Lltj6kM5jfk39zvBeAQoDiT1Z976V9OP9Uqj2owTrk3qVWjYGIQsDwir8Nf+xi+z9zzxrsv0GJDaK/DDYDspsh4LwhhwAzfzr8J4SfR5cpt/XsApxqGYBCQOUhQPGn9n/v45PN/utHehTjxaUOgIGJQoDiT1b1+N9hpZqDGlB8HPCO4HFAdjsEfLWiEKD40/01eZ3fHjz+V/sQcH5hGcAFTCFgYSHAhj9yai35muJf/2WAo0r7AAxU7GoI+I8FhgAzf3KyfqTn/4/Q/q9/B2CH6L2WASgE/Pnj8+cZAhR/cnr9yN7+t50OQDP4umUACgH/PwRcMMcQoPiT/dv/lyj+zVkGOMYyAIWAeYUAxZ+cPvtPAeDN2v/NWQZ4bPR+ywAUAqYtByzpU/Bt+CMHt//viz5GB6BZIeBSywA0iE0LAReWQoCZPzlz+/9ixb95ywBHWAYgZw0Bij858+7/w7X/m9cB2Dq60jIA2TcEXFS4Zy5Q/Mm+7f/sYLktdQCaGQJWWAYgp4WAdD9kbxE8p9QpU/zpXpm8R87qs08GDVkGeEn+TZzQBSCnXP8TAz52j9Dsf/KeeLH2f3N5WPTm/Bu52sVNTgnCE4WBTkAmp9aKG/MaggZ3AU4KNgOSg5YDtP3J/s/+n2D231zSms3upW+ugY4kOSgApBrxVOv/7eB7fdY6SZJc22c/zHeVzfYsA7zFMgBJco7t/zdp/zef9Djg8uithQ0eAgBJshgA0ua/W6Kbl2oIGt4F+IwuAElyltn/yWb/7SFt4Ngj2AxIkpx589/updqBlvDtYDNg0x9ZI5ugRyubufnvW8pke5cBXhOcDNjkALCabIACQHNP/nu19n97+Yvor4KTAZt8hC3pmuUwTv77ZXQjZbLdXYD3BpsBm9iauyr6wujLoy8ja+jL82v0KkuNjdz8926z//aSHufYLnpncP55U0w35+ddwmgIny9du6x3AFib14RtSrUCLe0CnKYL0LgAcGb+vVsv/z6SdXO9/Bo9UwBo3Oz/FLP/9pMe69gt9H8hCusbAM6QztGQLuMZAkCjZv/ZHoBdSjUCLQ8BK0o3qRAgAAACQHc2aKbvz9mKf5PhIqUAAA3gSURBVPcCwDOCg4EEAEAA6PrBP3sLAN28US/XBRAAAAGgs7P/rxtXukfa6PGC4GAgAQAQALp68M/zSzUBHaP8zK4QIAAAAkB7Z/9prP+2S1YX4CBdAAEAEAA6N/s/wOwfGVfrAggAgABg9o/udQEO0QUQAAABoDOz/wPN/lHEXgABABAA2j/798pfTOsC7BsmT4XSBRAAAAGgXbP/9Na/55n9o9+Ne3FwLoAAAAgAbX3u/yLjCMqkE6D2Ck4HFAAAAaCtp/7tWRrzgSkXxNm6AAIAIAC0bvb/FcUfswWAvyoVf50AAQAQAJo9838w+kQBADORNoWcpAsgAAACQGtm/yeUxnhg4A28PPqn4KkAAQAQAJpa/NOu/2ws39z4gbmwbv7jO3QBBABAAGj87P/tZv+YL8uiPw0OBxIAAAGgqYf+XBtdz6WJ+ZCS4oHBEcECACAANPXQHy/8wYJIO0XPC5YCBABAAGha639FaSwH5h0Ado4+EDwWKAAAAkBTZv73R3cSALAYUtvouPyiWqULIAAAAkBtZ/9pjH5faQwHFnxDbxC9LtgQKAAAAkDdN/5lm7eXGS9QZRdg/zD9XAAhQAAABIB6nPiX2v/7mv2jStIa0peCDYECACAA1LX1/4XSmA1UdmNvFb0tTD1lSggQAAABYPwn/t0S3cI4gWGQTgh8feHmthQgAAACwHhb/2nt/3X5v7/WP4Z6g18QLAUIAIAAUJdn/s83PmDYpHWlHaN3BksBAgAgAIy79Z+NxTuUxmhgKKSlgKODpQABABAAxtX6T/++R5XGZmAkN/rFwVKAAAAIAONq/V9sXMCoSW2m7aO3B0sBAgAgAIy69Z+NvduVxmRgJKR206vC9DcGCgECAAQAAWC4u/5fWRqLgbF0AtIN710BAgAEAAFg+Af+nGHmj7rc8BtHbwreFSAAwHggAAz7rP8b8zHXeICxkw6deE6pVSUECAAQANzD1RT/4rj67NLYC9QiBLw/TH8qQAioNgAsFQJQ0+K/VAAYyrq/1/yiMXwjeDRwGAHgdJcWGsLpAsBQHvn7hksLdSWl/+xEqvRooP0A1QWAs0Jvt+8jog8ja+gj8mv0LAGg8nX/7CVsHvlDrUmPoxwY7AcYxu7flaF37CdZV1cGTwMNY93/oNIYC9SStDZ1fJj+aKABYXEDAuma7d66/3GlsRVoBJcKAZXPBsgmKARUU/wvVUbQNNIa1ebR3wb7AUhyvuv+N+djqHV/NHYpYM8weXa19wWQ5Ozn/K/Ox06tfzSWtGHl8DD1fQFCAElOX+ZLs/83lMZQoNHLAZ8I9gOQ5Gzr/idp+6MtFE+tu1wIIMmBxf/yAWMn0PguQPYCixuC44JJKv7lk/5uCJMv+TH7R6tIG1l2Dr0DQzwZQNKO/96Pd0WfUBorgVaRNrQ8t3AjeDKAZJd3/K/Nx8TiGAm0OgQcWbgJPBlAsms7/lMAOFLxR5dI61vHFdbAhACSXSn+ad3//aUxEegUpwVPBpDs3o7/zxr+0VWKj7hcIASQ7FDxv2jAWAh0bilgg+j3hACSHSj+10SXaf0Dk4+8PDL6YyGAZIuL/0+im5TGPkAIiGwV/U1wUBDJ9h308+vo1oo/MJ30CMzjorcIASRbVPz/FH18aawD0CcE7BZdKQSQbEHxz8ayXRV/YO4h4KnRu4UAkg0u/vfkY5niD8wzBOwRvU8IINnA4p+NXXsq/sDCQ8Azog8IASQbVPyzMWsfxR9YfAjYO3qvEECyAcX/fsUfqDYE7B56r8wUAkjWec1f2x8YQgj4r9E7gsOCSNZzt//TFH9geCEge5zmj0IAyRoU/zQG/Sl41A8YSQh4bPSXQgDJGhT/G4NDfoCRhoAtw/R3B6wVAkgOsfivDdPP9t9G8QdGHwKyFwgV3yK4RgggOcTiv6ZQ/LOxZxPFHxg96WUa2auELwiTm3HWWBIgOYSW/5owueHvwjD5Sl8v9gHGGAIyTstvzNW5QgDJqop/cVz5twFjEIARs7Tw8fsLN++EEECyguI/Ufj54weMPQDGxJLCx0cWblYHBpGs4hn/tfnY0m/MAVCjbsBzo3cGTwiQXPxO/2wseV5hjFH8gZqSduPuHL0+9H9CQBAgOdNmv1T8s/NGnlAaWwA0IARkjwleHibX8WwOJDnbZr+05p+NHR7zAxpIcXfuicHmQJJz3+z36QFjCYCGUNyl+/pCB8C+AJL91vuzn3vDgDEEQMNYUkjwe0R/G+wLIM36px/uc3OYfJWvzX5Ai0hreJtHLync/JYEyO62/NPHl0Y3K40VAFpEcS3vuDD9vABLAmQ3Wv7Fe/4DA8YIAC2juKZ3QPS24D0CZBcf8bs9euCAsQFAB7oB20avtCRAdqrl/83ojmb9gBCQ8T/C1B3BugFk+2b95fP8rfcDlgT+zN9GbwwODiLbeLBPdm8/W8sfwKBuwMbRL4apm4V0A8hmFf7yRr8zw+Spflr+AGZcEnhF6G0SSgOJbgDZnFl/Kv7ZPfyaAfc4AExhSaE1uE30It0AsnGH+mReHN2+0O53sA+AeXcDjoquDPYGkE2Y9Wev731z4f610Q/AvCnOGrLHBb8aPClA1nnWf0GYfLyv2M0DgEV3A14bvTVM32EsBJCjf64/deNuiR5u1g9g2N2ALaKfK3UDLAuQ45n1nx7d0qwfwCi7AftGfxxsEiTHUfivi+5n1g9glBRfMbws+r7o/TMsCwgC5OKe6Z8o3FcPht4LfJb16c4BwMi7ATtFV5S6AZYFyOp292eeF33CgHsQAMbWDcjYP/p/g2UBssp2/0/D1Df3rWPWD6AuLA2Tm4/Wi749+gdBgFxU4b8lv5fW73OfAUCtKHYDHhX9WOitWRYHN0GA7F/41xQC8ydC74mbfvcWANSW4o7kbM3yrMLAlzYKCgJU+Kc+z782v1f+WuEH0GTK+wP2jF4Ypu9sFgTY1cI/Eaae3f+MUuG3zg+g0ZTXLf82+g0dASr8f/aq6PNmuF8AoBVBoDijeX70f5Y6AvYIsCut/qujB5c6Zgo/gFZTXtPcvxQEihuiHCbEphb+NYVreabC3++eAIBOBYGsI3BxaTB9qM9MSpFhXQv/2lLhL/76lfk1rvADwIBB8OnRr4Sp66RpFmV5gHVu85dP7st+7tzoPgo/AMwcBIp7BLJHoT4TvTP0f3LA8gDr0uYvb+y7K3pa9MmF63mJwg8AM1PeBb119F3Rn4fp+wR0BTju2X7xmvt16L0ca4cZrmcAwByCQHHGtGH0FdFvh+n7BCaCvQIc3Wy/vL7/rejfR/+y1NFS+AFgEfRrnT41+q/RP/UJA6uDJQIOf7Z/e+i1+XcvXZsO8AGAIVAOAtn7Bo6Ofq80gBfPFLBEwIUU/TWF7lLx930nekx0y1muTQDAEFjaZ8D9m9B7+dCvhQEuouj3a/H/NvrJ6B59rkNtfgAYA/2WB7J12BdHvxx6bdryEoEwoOjPpehnT5+cm19LD+sz29fmB4AadwWy16m+NnpB9L5ZOgP2DHRnI9+aQhgs/r77o5dFj4pu26fom+0DQM3pN1g/Jvrm6EXRu0sDf7bJa1WYuoHQ0wTtOpkvbeQrr+lnwfCK6Fvya2S2DhMAoAGkAbzcrt0m+rro18L0ZYLi7FAgaG7BH9TaTzv4/yN6ZHTHAQFSix8AWhQG1u0zsG8WPST66egNAwrLqjD9BEKBoJ4FP3Vyyr8/2xx6avQl0eWKPgDoDBRZP/TeRZCdPHhh9LY+hWR1IRD06xAIBaPZuDdbwV8Zeq39d0f3jG4wx2sAANCxMNBvrXfT6H7Rfwm9swbuHlCc+i0ZCAXVzu5Xh6lPcZT/n3ui3w29R0EPGTDLX6roAwAGkRWJdQf8Wnb4y0HRD4fe8a93zFDAUrEa9PIioaD/7vxisR80u08z/G9GPxJ6bf1tB3zP7N4HAFTaHcjYOPrM6NujX4r+OEx/3LD86OGqMPORxW3rGAxq35cL/UMzfI4HQu9lUGdF/yH6d6G3d2NQwTfLBwCMNBBknYPtovtH/zEPBT8MvdfDrpmlSBYL4cSAgFC3DsKaOczkJ0p/t9WzfM57o9dGz4y+N3po6D2et76CDwCoUyBISwZLZ/g92Ww1O0b2NdEPhd4Jc1mRuyMvjHMptOVCmoJCCgszBYaqXF0o6hOFr6MYXOYSTLLPcWf+b7Ai9JZUjog+K7rVDAFrSeHfWsEHANSySzBTKEjdgkdGn5R3DLKXGn08enb06uhvQm9j20OhunX21bNY1WmID+Vf+2/yv0v2dzohemzobdB7Sui9yGmdWf4d1zW7BwC0oVMwn3b1srxzsGt03+gr8wL6gejJ0XOil0e/H70u+p+h95RCtgfhgTB4t/x8gsND+efKPudd+Z9xXf5nXpZ/DSfnX9Ox+de4b/41b5b/Hebyb7OumT0AoGvBoLiMsJDZbvb7s/XxjaKbhN4ehMdHdwm9d9VnbfX98i7DIbmHRV+We1jh5/fPf++z8v93l/xzbZd/7o3yP2shX+M6hb+jQg8AwBw6B0sLBbROM+VieCkWdwUeAIAxdBSKwaEYIOZi+f8rfk4AAAAAAAAAAAAAAAAAAAAAAAAAAAAAAAAAAAAAAAAAAAAAAAAAAAAAAAAAAAAAAAAAAAAAAAAAAAAAAAAAAAAAAAAAAAAAAAAAAAAAAAAAAAAAAAAAAAAAAAAAAAAAAAAAAAAAAAAAAAAAAAAAAAAAAAAAAAAAAACMgf8Hh3KKVd2zUXIAAAAASUVORK5CYII=;" vertex="1" parent="Y-vvo44MhsxP3mwZvi4m-5">
          <mxGeometry x="-1.3626343675417658" width="135.92233009708738" height="135.92233009708738" as="geometry" />
        </mxCell>
        <mxCell id="Y-vvo44MhsxP3mwZvi4m-8" value="" style="triangle;whiteSpace=wrap;html=1;strokeColor=none;" vertex="1" parent="Y-vvo44MhsxP3mwZvi4m-5">
          <mxGeometry x="86.6512141537823" y="83.93203883495147" width="20.634782608695662" height="23.39223300970874" as="geometry" />
        </mxCell>
        <mxCell id="Y-vvo44MhsxP3mwZvi4m-9" value="&lt;b style=&quot;font-family: &amp;#34;tahoma&amp;#34; ; font-size: 33px&quot;&gt;Chrome Media Grabber&lt;/b&gt;" style="text;html=1;strokeColor=none;fillColor=none;align=center;verticalAlign=middle;whiteSpace=wrap;rounded=0;" vertex="1" parent="1">
          <mxGeometry x="378.5" y="105" width="480" height="20" as="geometry" />
        </mxCell>
        <mxCell id="Y-vvo44MhsxP3mwZvi4m-10" value="" style="shape=image;verticalLabelPosition=bottom;labelBackgroundColor=#ffffff;verticalAlign=top;aspect=fixed;imageAspect=0;image=data:image/png,iVBORw0KGgoAAAANSUhEUgAAAqEAAAKhCAYAAABgondeAAAAGXRFWHRTb2Z0d2FyZQBBZG9iZSBJbWFnZVJlYWR5ccllPAAAAyZpVFh0WE1MOmNvbS5hZG9iZS54bXAAAAAAADw/eHBhY2tldCBiZWdpbj0i77u/IiBpZD0iVzVNME1wQ2VoaUh6cmVTek5UY3prYzlkIj8+IDx4OnhtcG1ldGEgeG1sbnM6eD0iYWRvYmU6bnM6bWV0YS8iIHg6eG1wdGs9IkFkb2JlIFhNUCBDb3JlIDUuNi1jMTM4IDc5LjE1OTgyNCwgMjAxNi8wOS8xNC0wMTowOTowMSAgICAgICAgIj4gPHJkZjpSREYgeG1sbnM6cmRmPSJodHRwOi8vd3d3LnczLm9yZy8xOTk5LzAyLzIyLXJkZi1zeW50YXgtbnMjIj4gPHJkZjpEZXNjcmlwdGlvbiByZGY6YWJvdXQ9IiIgeG1sbnM6eG1wPSJodHRwOi8vbnMuYWRvYmUuY29tL3hhcC8xLjAvIiB4bWxuczp4bXBNTT0iaHR0cDovL25zLmFkb2JlLmNvbS94YXAvMS4wL21tLyIgeG1sbnM6c3RSZWY9Imh0dHA6Ly9ucy5hZG9iZS5jb20veGFwLzEuMC9zVHlwZS9SZXNvdXJjZVJlZiMiIHhtcDpDcmVhdG9yVG9vbD0iQWRvYmUgUGhvdG9zaG9wIENDIDIwMTcgKFdpbmRvd3MpIiB4bXBNTTpJbnN0YW5jZUlEPSJ4bXAuaWlkOjI1MkVDODZGMkRDNjExRTk4ODFBQTBGMjlDMDYwNTVGIiB4bXBNTTpEb2N1bWVudElEPSJ4bXAuZGlkOjI1MkVDODcwMkRDNjExRTk4ODFBQTBGMjlDMDYwNTVGIj4gPHhtcE1NOkRlcml2ZWRGcm9tIHN0UmVmOmluc3RhbmNlSUQ9InhtcC5paWQ6MjUyRUM4NkQyREM2MTFFOTg4MUFBMEYyOUMwNjA1NUYiIHN0UmVmOmRvY3VtZW50SUQ9InhtcC5kaWQ6MjUyRUM4NkUyREM2MTFFOTg4MUFBMEYyOUMwNjA1NUYiLz4gPC9yZGY6RGVzY3JpcHRpb24+IDwvcmRmOlJERj4gPC94OnhtcG1ldGE+IDw/eHBhY2tldCBlbmQ9InIiPz4s6lU+AABAcUlEQVR42uzdCbhd470/8DeRWUKIICgRqiGJIeZZS1LUUELNVUNvdNBqUf+r1ept6VV6i2qvuVSRmqerNbbUPIQQhIrElGiTNELmRPzfd+9ligxn2Hufvdf6fJ7n+5yoVp3fWXut71nDu9q9//77AQAAaqm9EQAAoIQCAKCEAgCAEgoAgBIKAABKKAAASigAACihAAAooQAAKKEAAKCEAgCghAIAgBIKAIASCgAASigAAEooAAAooQAAKKEAACihAACghAIAoIQCAIASCgCAEgoAAEooAABKKAAASigAACihAAAooQAAoIQCAKCEAgCAEgoAgBIKAABKKAAASigAAEooAAAooQAAKKEAAKCEAgCghAIAgBIKAIASCgCAEgoAAEooAABKKAAAKKEAACihAACghAIAoIQCAIASCgCAEgoAgBIKAABKKAAASigAACihAAAooQAAsGgd8v4NtmvXzk8ZivtLdu+YlbKvPWNWyL5+PMvHdI3pnP25Y0z3mG4xnbJ/Vvp7XZrw/zk7Zk7257kxM2Omx8yLmZb9vVnZn99eKFOzr5NiJmdfF/gxQvG8//77hfg+2+X9G1VCIZdWiVkjZs2PfV0tK5t9sq+9Q2Nf7VmQFdGUidnXCTGvxbzxsa//tDmAEqqEKqFAZaQzk+tm6Rfz2SypbH4mlM9MUpbOrr6eldJ/ZHkl5uUss4wIlFAlVAkFPimdrRyQ5XMxA7OvqxlNxaSzpy/GjM6+PpdlktGAEqqEKqGQdx2zojk4ZuOYDbO/Xslo2szkrIw+E/N0zMjsr+cZDSihSqgSCo0oPcyzScxmWelMfx6YFVHqWyqg6YzpU1kpfSL781yjASVUCVVCod70jdkyZuvs6+Dw0VPlNL65WSF9NObh7Ot4YwElVAlVQqGW0tPm6TL6jjE7xWwbs6qxFM5bMQ/G/C3mvlC+jG85KVBClVAlFCpaOjfJCuf2MTuE8lqb8HFpjdP7Y/6eFdOnlFJQQpVQJRSaKy2DNCRmaMzOMb2MhGaaEnNPzJ0xd4Xy8lGAEqqEAp+Q1uT8QsyuWfFcz0iosJeyQvqXmHuDtUtBCVVCobDSW4Z2j9kzlM92djUSaiQV0HSW9NaY20P5rU+AEqqEQo6l9Tn3idkr+zPUg7RG6S0xN2Z/BiVUCVVCodE3/1BeMikVz/1C+fWXUM/S60avywppWgrqfSNBCVVClVBonOK5TcxXsvL5GSOhQb2eldFrYh5SSFFClVAlFOpTeiPRITEHxaxlHOTMqzFXx1wZym90AiVUCVVCoQ2tlZXOQ7ISCkUwOiujV2flFJRQJVQJhRroFrNvzJGhvIC8DZzCHqdDeWH8S2NuiJlpJCihSqgSCpW3VVY8D4zpYRzwCe/GjMgK6SPGgRKqhCqh0Dorxnwt5usx/Y0DmmRMzEUxl8X82zhQQpVQJRSabuuY4aF81rOzcUCLzAnls6MXxDxsHCihSqgSCovWPZQfMPpGzEbGARU1KuZ/Q/mBpunGgRKqhCqhEELfmGNjjo5Zzjigqt6JuTjmNzHjjQMlVAlVQimi7WOOi/lyTHvjgJpaEHNTzNkxfzcOlFAlVAkl7zqE8n2e34sZbBxQF0bG/DqU7x+dbxwooUqoEkqeLBtzVMwJwWs0oV6l14SeFXNJzAzjQAlVQpVQGtlKMd8K5Xs+exkHNIQpoXzP6G9jJhsHSqgSqoTSSPrEnBTKDxstaxzQkNLZ0PQQ0xkxE40DJVQJVUKpZ2vGnJiVzy7GAbkwOyujZ8a8ZhwooUqoEkq9lc+TQ/m1mh2NA3JpXii/FvR0ZRQlVAlVQmlrq8econxCIcvoz2LeNA6UUCVUCaWW0gNH6Z7PbweX3aGo0mX680L5nlEPMKGEKqFKKFWVXq2Z1vg8PmZ54wCiaTG/CuW1Rr0SFCVUCVVCqahOofxO9x/G9DYOYBEmxZwWyu+on2scKKFKqBJKaw0L5ctt6xgF0ARjQ/l2neuNAiVUCbU10xKbx/xPzHZGAbTAAzHfj3ncKFBCF629HzV8wloxV8Y8poACrbBdth+5MtuvAAtxJhTKuobyJbQUT7wDlZSepD8jyyzjYGlcjldCKY59Q/np1r5GAVTR+FBeXeMGo0AJVUIptv4x58YMMQqghu6K+U7MGKOgyCXUPaEU0bKh/B7oZxVQoA0MyfY/Z2b7IygkZ0Ipmj1ifhvK73sHaGvpPfTfirnNKPiAM6GQL6vFXBdzqwIK1JE1s/3Sddl+CgpDCaUI23h6x3u692qYcQB1ali2n/q2YzNF4XI8eZYePLosZkujABrIozFfCx5cKiyX46FxdYj5z5inFVCgAW2Z7b/+M9ufQS45E0reDAzls5+bGgWQA0+G8lnR0UZRHM6EQmPpGHNqzEgFFMiRTbP92qnZfg5yw5lQ8iDd+/lH5RPIuSdiDgvuFc09Z0KhAX7HiDk2OPsJFMNm2f7u2Gz/B419EHcmlAa1eijf+7mLUQAFdHco3yv6plHkjzOhUL8OCOWb9BVQoKh2yfaDBxgFSihUX3rH8sUxI2J6GgdQcD2z/eHFwTvoaUAux9MoNsp2tv2NAuBT0sNKB8aMMorG53I81MnvEaH8GrtHFVCAxeqf7Se/HTy0RKMc4J0JpY6tEMoPH+1lFABNdksoP7Q01SgaU1HOhCqh1Ku05NJ1MX2NAqDZxsfsF8pvXEIJrUsux1OPhsc8pIACtFjfbD863CioV86EUk/S053nxxxqFAAVk94od0zMDKNoDC7HK6HU1noxN8QMMAqAinsuZt+Yl4xCCa0XLsdTD/aIeUwBBaiaAdl+dg+jQAmF8jIiJ8fcHLO8cQBU1fLZ/vbkYBkn6qEEuBxPG0n3f14eM8woAGru+pjDg/tE65J7QpVQqmft7LfxQUYB0Gaejdk7ZpxRKKFtweV4am27mMcVUIA2NyjbH29nFCih5N1hMffG9DIKgLrQK9svH2YUKKHkUbon4rSYP8R0NA6AutIx2z+fFjywRC3LgXtCqbJuofz+9/2NAqDuXRvK752faRRtx4NJSiit1zvm1pgtjQKgYTwas2fMJKNQQpVQJbQRrRPzl5h1jQKg4bwcs2vMWKNQQqvFPaFUw2YxDyugAA1r3Ww/vplRoITSKHaLuS+UL8UD0Lh6Z/vz3YwCJZR6d1TMbaH8MBIAja9btl8/yihQQqlXJ8RcbJsCyGVXuDjbz4MSSl1Ja8udaQwAuXZmtr+HivB0PK2xTMx5MccYBUBhnB/z7Zj3jKI6LNGkhLJknWIujznQKAAKZ0TM4TFzjUIJVUKV0FoX0OtCeTFjAIopvYxkP0VUCW0p94TSXN2yHY8CClBse2bHAyui0CLOhNLcApqW6vi8UQCQ+WvMHsH75ivGmVD4pGUVUAAW4fPZ8WFZo6A5nAmlKZaPuTNmC6MAYDEeixkaM80oWseZUChbVgEFoAm2yI4XzoiihNJqHzyEpIAC0NQi6mEllFBaXUDdAwpAc31wj6giihJKs6V1QG9UQAFoRRG9MTuegBJKkwtoWoh+qFEA0ApDs+OJIooSylKld8GnV3FaiB6AStgzO64sYxQooSzJecG74AGorAOz4wsooSzSaTHHGAMAVXBMdpyBD1msnuSEmDONAYAqOzHmLGNYsqIsVq+EclTMxcYAQI0cHXOJMSihSmix7RbKa7m5LQOAWlkQs0fMn41CCVVCi2mzmPuCxYQBqL2ZMTvGPGEUSqgSWizrxDwc09soAGgjk2K2jhlrFMUsoS7DFk8qnn9RQAFwPEIJpVbSpfdbY9Y1CgDqwLrZccmtYUooOZbuS7gsZkujAKCObJkdn9w/p4SSUz+P2d8YAKhD+2fHKQrEg0nFcFjMH4wBgDr31Zgrij4ET8croXmxXcy9MR3t2wCoc/NivhDzgBKqhCqhjW3tmMdjetmvAdAgpsRsHjNOCc0394Tm17IxNyugADSYXtnxa1mjUEJpPOn07+Uxg4wCgAY0KDuOebBDCaXB/GfMMGMAoIENy45n5JR7QvNnj1C+jOEXDAAa3YKYvWNuK9I37cEkJbQRrRfzWMzy9lsA5MS0mC1iXlJC88XZsvxIN3DfoIACkDPLZ8c3DyopodSp82MGGAMAOTQgO86hhFJnhsccagwA5Nih2fGOnHBPaOPbNOahmE42ZwBybm7MNjFP5vmb9GCSEtoIVogZGdPXfgmAghgfMzhmqhLa2FyOb+B+HXOZAgpAwfTNjn8WsldCaSPfitnLGAAooL2y4yANzOX4xrRRzKMxnW3CABTUnJgtY0bl7RtzOZ56ldZJG6GAAlBwnbPjofVDlVBq5NyY/sYAAKXj4TnG0Jhcjm8sB2S/9QEAHzkw5k95+WYs0aSE1pvVY0bH9LSvAYBPeDtmYMybSmjjcDm+Qbp0KC9HoYACwKf1DJZtUkKpim/H7GIMALBYu2THSxqEy/H1L910nd6K1NXmCgBLNCuU36Y0ppG/CZfjqQcdY/6ogAJAk3TNjpsdjUIJpXV+GLOpMQBAk22aHT+pcy7H16/0lN9TMR1spgDQLPNC+bL86Eb8l3c5nraUiudlCigAtEhHx1EllJY5MbgMDwCtsWl2PKVOuRxff9LT8E8H74aHNrHqqquGvn37hrXXXjv06dMn9OrV68N06dIl9OjRo/Tf6969e5g3b16YM2dO6dLZtGnTwqxZs8KUKVPCpEmTwuTJk8Obb74Zxo8fH8aNG1f6+0DNzYnZODTY0/LemKSEtoV0ZvqhmC3tN6C6UqncfPPNw4YbbhgGDRpU+vq5z30udO5cnd//pk6dGp5//vnw7LPPhmeeeaaUJ598MsyePdsPA6rr0ZhtYhYooUqoErp4aZHd39hfQOWtscYaYZdddgnbbrtt2G677UL//v3b/N8pnUlNRfSBBx4o5d577w3vvvuuHxZU3rEx5ymhSqgSumirhfLlgh72FdB67du3LxXOPfbYI+y2226ls531LpXSVEZvv/32cNttt4UxY8b4QUJlpN/u0m+eE5RQJVQJ/bTrYobZT0DrPu/bbLNNOPDAA8OwYcNK93Q2snTJ/uqrrw7XXnttGDt2rB8wtM71MfspoUqoEvpJe8Tcav8ALZMeJvra174Wjj766LDOOuvk8nu8//77w8UXX1wqpO4jhRbbM+Y2JVQJVULLlo15PmZN+wZonnS5/Xvf+17Ye++9Q4cOxVgO8O233w6XXXZZOPvss8Orr75qI4DmeS1mg5gZSqgSqoSGcGbMCfYL0DTpXs999903nHDCCWHLLYu7kMR7770XrrvuunDWWWeFJ554woYBTXdWqPP1Q5VQJbQW0k3SzwZvdIAmfZa/8pWvhJ/85Cdh/fXXN5CPSQ8y/ehHPwpPPfWUYcDSzY9JTyrW7ZN/XttJLZyrgMLSpSfcR44cGUaMGKGALsLuu+9ems9NN91kPrB0HbLjL0poYe0bM8QYYPEGDBgQ7rjjjnDrrbeGjTfe2ECWIt0bmxbDP+ecc8IKK6xgILB4Q7LjMG3I5fi20TWUH0bqaxOET1tuueXCz3/+8/DNb34zLLPMMgbSAv/+97/DySefHC688MLCXNqDZhofyg8pzaq3fzGX46mmkxRQWLS99torPPfcc+HYY49VQFthxRVXDOeff35paad6eDsU1KG+2fGYNuJMaO2tFco3Q3ex+cFH0rvcf/e735UePqKy5syZE/7rv/4rnHHGGaWn6oEPpUV3029pdbXemafjldBquTLmYJ97+Eh6p/vll18eVlttNcOoogcffDAceuihYfz48YYBH7kq5hAltPZcjq+tzRVQ+EinTp1K61zeddddCmgNpMX9R40aFQ466CDDgI8cnB2fqTFnQmvr7zHb2ewglN7rnhZbT+96p/bOO++8cPzxx4e5c+caBoTwQMz29fIv43K8Elppw2Ku8zmHuKfffvvSO9BXWWUVw2hDDz30UNhvv/3CxIkTDQNC2C/meiVUCc1bCe0UyksyreMzTtEdccQR4YILLggdO3Y0jDowYcKE0ssAvG0JwthQXrKpzS8PuCeUSvqGAkrRpV8If/azn4VLL71UAa0j6V7ctIzTbrvtZhgU3TrZ8ZpaHRecCa267jGvxPS2uVFUHTp0CJdcckn46le/ahh1asGCBeGYY44JF110kWFQZJNi+sVMb8t/CWdCqZTvKaAUWXoC/oYbblBA6/1g0L596e1K3//+9w2DIuudHbepAWdCq2ulmJdjlrepUUTdunULN910UxgyZIhhNJBTTjml9NpUKKhpMevGTG6rfwFnQqmEkxRQiqpr167htttuU0AbULp398c//rFBUFTLB6/zrAlnQqtn9VA+C+r1nBROugSf1gDdc889DaOBnXjiiaWXCUABpdd5prOhb7bF/7kzobTWKQooRbTMMsuEK664QgHNgTPPPDMMHz7cICiiLtlxnCpyJrQ61gzls6DWoaFwzj333HDssccaRE6kp+b32WefcMsttxgGRTMvlM+Gvlbr/2NnQmmNkxVQiug73/mOApq3g0T79mHEiBFh0003NQyKpmN2PKdKnAmtPGdBKaR0+T09CZ9KC/nz1ltvhS222CK8/vrrhkGRtMnZUGdCaakTFVCKZr311gtXXnmlAppjq666arj++utD586dDYMi6Zgd11FC616fmKONgSLp3r17uPHGG0OPHj0MI+c233zzcN555xkERXN0dnxHCa1raV0xT8RTKBdffHHYYIMNDKIoR+Ojjw5HHnmkQVAkXYJ1Q6vCPaGVk96OND5mWZsVRXHEEUeESy+91CAKZsaMGWHw4MHhpZdeMgwKs9nH9A01eouSe0Jprm8poBTJuuuuG37zm98YRAEtu+yy4aqrrgodO7r9neJs9tlxHiW0LjdO69JQGGlB+vQgUiojFFNasumnP/2pQVAkxwYnm5TQOnRUTC9joCiOO+640nI9FNsPfvCD0mV5KIhe2fGeCnFPaOul61FjYz5jc6II+vXrF0aPHh26du1qGISRI0eGLbfcMsyfP98wKIK0UG6/mKpu8O4JpakOVEApkgsuuEAB5UPpTOj3vvc9g6AoPpMd96kAZ0Jb78m0H7YpUQT7779/uOaaawyCT0hPy6cXFkyYMMEwKIKRMVV9j60zoTTF9gooRdGlS5fwy1/+0iD4lPSA2umnn24QFMXg7PiPEtqmjjMCiuL73/9+6Nu3r0GwSIcffriH1XD8p1lcjm+5dDQeq8hTBCuttFIYP368JZlYovvuuy/stNNOBkERLIhZJ5RfUlNxLsezNMeaH0VxwgknKKAs1Y477hg+//nPGwRF6U/WB28lZ0JbpnvMmzHL2YTIuz59+oR//OMfSihN8uijj4atttrKICiCd2JWj5le6X+wM6EsySEKKEXhLCjNkdYM/eIXv2gQFMFyWR+ghZwJbZmnYzay+ZB3PXv2DK+//nro3r27YdBkd999dxgyZIhBUASjYjau9D/UmVAWZ2sFlKL4+te/roDSbLvsskvYaCO7SQpho6wXoITWxDFGQBF07NgxfPe73zUIWiTdxgEFMdwIWsbl+OZZMSa9EqSzTYe8GzZsWLjuuusMghaZO3duWH311cPkyZMNg7ybE7NazL8r9Q90OZ5F+ZoCSmF+tR/ul3tarlOnTqUF7KEAOmf9gGZyJrR5Xojpb7Mh79Zaa60wbty4ar7sgQJ44YUXwgYbbGAQFMGYmPUr9Q9zJpSFbaWAUhRHHnmkAkqrrb/++mHbbbc1CIqgf9YTUEKrc1w2AorigAMOMAQq4sADDzQE9AQWyeX4pukW81ZMD5sMeTdo0KDwzDPPGAQVMXHixLDGGmuEBQsWGAZ5927MqjEzW/sPcjmej9tXAaUonLmiktJrX12SpyB6ZH0BJbSinGKnMPbee29DoKLScl+gL7Awl+OXbq2YcekfZXMh79Zcc83w6quvGgQVNWbMmNJDSlAAqVStHdOqHanL8XzgIAWUothtt90MgYrr379/6Nu3r0FQBO2y3oASWhGHGAFFseuuuxoCfsEBvUEJrQODYgYaA4X49b1du7DDDjsYBFWx4447GgJFMVB3UEIr4WAjoCjSJdMVV1zRIKgKT8hTMM6GKqGt4r4OCmW77bYzBKomrRWaHnyDgvA8iRLaKtuE8pPxUAhbbeWNc1R5p7rNNoZAUayV9QiU0Bb5ihFQJBtvvLEhUFUbbbSRIaBHoIQuRTqFvo8xUBTLLLNMGDBggEFQVemVsFAg+wSX5JXQFtgy5jPGQFGst956oXPnzgZBVW244YaGQJF8JusTKKHN/u0FCmODDTYwBKp/RP7MZ8Jyyy1nEOgTKKFLsJ8RUCT9+vUzBGrCm5PQJ1BCFy89neGITKGsvfbahoBfeKAKm3zWK1BCm8SpcwrH2Slsa6BXKKFtby8joGjSvXpQC2nRetArUEIXsX8MTptTQCuttJIhUBO9e/c2BIpm46xfoIQu0e5GQBH16tXLEPALD+gXSmgb2tMIKJoePXqEjh07GgR+4QH9QgltI11jdjYGlAKonuWXX94QKKKds56BErpIX7CBAFT5t/2udrMUc9PPegZK6CLtagQUkTNTAHqGEtq2hhoBRdSuXTtDwC89oGcooW1kzZj1jAHALz1QJetlfQMl9BOGGAFA9c2ePdsQ0DdQQj/GKXKUArC9gb6hhNZ8BpZmQikAoNp21r2U0I/bJMZCiRTWnDlzDIGaefvttw2BIuuV9Q6U0JKdjIAimzJliiFQM1OnTjUE9A6U0Mz2RkCRzZ07N0yfPt0gqInJkycbAnoHSmj2/e9gM6Do/vWvfxkCNeHMO5R6h5OAhhAGxqxgM6DoJk2aZAj4hQdqI/WOAcaghDoLCtH48eMNAdsa1M6ORqCE7mQTgBDGjRtnCNTEK6+8Ygigfyih0bY2AVBCqR1nQkH/UEJD6Buzqk0AQnj55ZcNgapLa9K+8cYbBgHl/tFXCS2urXwGoOyZZ54xBKru+eefD/PnzzcIKNtSCVVCofDS2o1vvfWWQeCXHaidrZVQv4EACgK2MdBDlNCa6BQz2PYPH3nyyScNgap64oknDAE+MjjrI0powWxS9B88LOyBBx4wBKpm3rx54fHHHzcI+EinrI8ooQWzmW0fPunhhx8O77//vkFQFSNHjgyzZs0yCNBHCl9CXYqHhUydOrX09DJUw4MPPmgIoI8ooaHgp79hce6++25DwLYF+ogSWiUdYwba7uHT/vznPxsCFTd79uzwt7/9zSDg0wZmvUQJLYgBRf6Bw5Lcd9997tuj4lIBtV3BInXMeokSWhDuB4XFSGesXDal0v7v//7PEEAvUUKjjW3vsHjXXnutIVAxacWFG264wSBAL1FCow1t77B4t9xyS5g7d65BUBHpqfgJEyYYBOglSmgo8L0X0BTTpk0Ld955p0FQEddcc40hgF6ihEa9Y1ayvcOSXXHFFYZAq6W3JI0YMcIgYMlWyvqJEuq3DeCmm24KkyZNMghsR6CfKKF+yFA76Z5QZ0NprYsvvtgQQD9RQjP9befQNBdeeKEh0GLjxo2z3BfoJ0po0X/TgJZ48cUXvUGJFjvnnHPCggULDAL0k8Vql9Zwy/U32K7dx//yzZjVbOvQNDvvvLOzWTRbWmFhjTXWCNOnTzcMaJq0jtnqH/xF3rvZB4p0JrSrAgrNc88994SnnnrKIGiW888/XwGF5lkt6ymFUqQSuq5tHJrvjDPOMASaLL36NV2KB/QUJVQJhVZJi40//fTTBkGT/Pa3vw0TJ040CNBTlNCP6Wf7huZL9yb99Kc/NQiWasaMGeG///u/DQL0FCV0IZ+1fUPL3HzzzeHxxx83CJYoXYafPHmyQYCeooQqoVAZ6WzocccdZxAsVroE/4tf/MIgQE9RQhdhTds3tNxDDz3kPeAs1sknn+yJeNBTmqVI64TOjulsG4eWS2s/vvTSS6Fr166GwYfSrRpbbbWVxemhdebEdEl/sE5ovqyigELrvfHGG+GUU04xCD703nvvheHDhyug0Hqds75SGEUpoWvYtqEyzj777PDkk08aBCW/+tWvvNAA9BUldAncDwoVks58HXXUUaWvFNvLL78cTj31VIMAfUUJ9ZsF1MaoUaOUD7+MhMMPPzzMmjXLMEBfUUL9ZgG1k5bjefDBBw2ioE477bTSigmAvqKELtlqtmuorHQm7NBDDw3vvPOOYRTMww8/HH72s58ZBOgrSmgT9LZdQ+WNHz8+HHHEEQZRIFOmTAkHHXRQmD9/vmGAvqKENkEf2zVUxw033BDOOOMMgyiAtAzTgQceGF599VXDAH1FCfWbBbS9H/7wh+Gee+4xiAL8nO+++26DAH2lIorwxqRUtOeFYr2iFGpuxRVXLD2o8rnPfc4wcuiPf/xj+OpXv1qYN7lAG0lvfegYP2eFePtDEUpoevvAW7ZrqL5+/fqFRx55JPTu7eJDntx3331h6NChYe7cuYYB1bdq7Gb/LMI3WoSzgyvZnqE2XnnllbD33ntbOzJHXnzxxbDPPvsooKC3KKEt4JQM1FBavmffffcN8+bNM4wc/FKxyy67hKlTpxoG6C1KaAv0tD1Dbf3lL38J+++/f+lpahrTm2++Gb74xS+GN954wzBAb1FCW2gF2zPU3s0331x6kEURbTwTJ04MQ4YMKb0bHtBblFC/UUDDufLKK8N+++3n0nwDSWdAd9hhh/DCCy8YBugtSqgfJjSuG2+8MXz5y1/2sFIDGDt2bNhqq62cAQW9RQn1w4R8uP3220tL/KRXPlKfnnjiibDtttu6BxT0FiXUDxPy5YEHHgjbbLONs2x1KN2/u+OOO4Z//vOfhgF6ixJaQcvbnqE+vPTSS2HrrbcO999/v2HUif/5n/8Jw4YNCzNnzjQM0FuU0ArranuG+jF58uTS2pPnnHOOYbShVDoPOuigcPzxx4f33nvPQEBvUUKroLPtGepLelr+uOOOCwcffLAzcG0g3RKx5ZZbhhEjRhgG6C1KaBW5HA916uqrrw6bbLJJePLJJw2jRi677LLSzEePHm0YoLcooVXW0fYM9euD+0TPOOOM8P777xtIlbz99tvhgAMOCEcccUSYPn26gYDeooTWQHfbM9S3dHn+//2//xe22247i6RXwU033RQGDBgQrrnmGsMAvUUJraFutmdoDA899FDpUvFPf/rTMHfuXANppbfeeqv0xqp99tknTJgwwUBAb1FCa6yT7Rkax5w5c8Kpp54aNtxww9Ii9zRfOrOcll7q379/uP766w0E9BYlFKCpXnzxxfClL30p7L777mHMmDEG0kS33nprGDhwYGnppWnTphkIoIS2oS5+zNC4/vznP4dBgwaVHqgZN26cgSzGfffdV3rr0V577VV62AtoWIVZoqld3p9GbdeuncdtISc6deoUjjzyyHDSSSeFvn37Gkgovw71xz/+cfjrX/9qGJATsZu1U0KVUKAOdejQIey7777hhBNOCJtvvnnhvv/0hqMbbrghnHXWWeGxxx6zQYASqoQqoUCtbbvttmH48OGlp8C7ds332+7S0+6///3vw0UXXeTWBFBClVAlFKgHPXv2DIcddlg45JBDSq+kzIu0VNUdd9wRLr300nDbbbeF+fPn+2GDEqqEKqFAPVp77bVLbwfaf//9w+DBgxuyeN57773hqquuCrfccoun3EEJVUKVUKDRrLrqqmHXXXcNu+22WxgyZEhYYYUV6vLf85VXXimtBJDOeqYCOmPGDD88UEKVUCUUyMn+IKy//vql14Ome0nTQ03rrbdeWGaZZWr67zFz5swwevTo8Mgjj4QHH3yw9IS7NxoBSqgSChRIly5dSsV0o402KhXStPRTupyfsvLKK5eKa0uktxa98cYbYfz48R/mueeeC88++2x4+eWXw4IFCwwfUEKVUIBF7j9Cr169PkxapzQ9APVBeU0PCX2Q6dOnly6h//vf/w7/+te/wrvvvmuAgBJa8BI6OxTo7QMAQEObHbtZ1yJ8o0V4beds2zMA0CDmFOUbbe9nDQCAElp5c/2YAQC9RQmttZm2ZwBAb1FCa2267RkA0FuU0FqbZ3sGAPQWJbTWvHQZANBblNCam2N7BgD0FiW01mbZngEAvUUJrTWX4wEAvUUJrbm3bc8AgN6ihPphAgAooX6YAAB6ixLqhwkAKKE516EA3+NU2zOwNMstt1wp3bt3D126dCn/lt6+fek/+0D6ex06fHq3OX/+/DB9+kcvOXnnnXfCggULSn+ePXt26e+l/ywFQG8pTgl1JhQKZNlllw2rrbZaWHnllUtfe/fuHfr06RNWWWWV0KtXr9CjR48PC+fH/1wrH5TRd9999xN/njJlSvjnP/8ZJk6cGCZNmhQmTJgQ/vWvf5W+zpgxww8WisOZ0ByZZHuG/Fh11VVDv379Pszaa69d+rrGGmuUymbXrl3r+t+/JaV31qxZpXL6xhtvhFdeeSWMGzeu9PWDvPXWWzYM0FsaTrv3338/399gu3arxC/20NBAOnbsGNZff/0wcODAUgYMGBDWWWedUtms95LZFlJJTWV07Nix4bnnngujR48u5YUXXgjz5s0zIGiw37VjN/unEpqPEpoevkp74fa2a6g/6bL5FltsETbaaKMPS2f//v0Xee8lzZPuVR0zZsyHpXTUqFHhscceK13mB+pSupm8Y+xmC5TQfJTQ9CWdCV3Ftg1tq1OnTmHjjTcOW2211YdJl9OprXQ5/5FHHvkwTz/9dJg7d67BQNtLZ0BXzXs3K1oJfTZmoG0bais9Zb7ddtuFIUOGhO233z4MHjw4dO7c2WDqzJw5c8LIkSPD3//+93DXXXeFBx54oPRUP1Bzo2MGKaH5KqF3xgyxbUN1pSWNUtFMpXPnnXcuFVClszFLaSqid999dympoH6w5BRQVXfFDFVC81VCr4w52LYNlZfWztx9993DPvvsE774xS+GFVZYwVByZurUqeGOO+4IN954Y7j99ts/sSYqUFFXxRyihOarhJ4Zc4JtGyojPUy05557lopnOuuZ7vWkGNK9o+mSfSqkt956q4ecoLLOijlRCc1XCT025lzbNrRcz549wwEHHBAOOeSQsO2225YuvVNs6RL9gw8+GK688srwpz/9Kbz9tneDQCt9J+Y3Smi+Sug+MTfYtqF50jJJ6RL74YcfHvbaay/3d7JY6T7SW265JVx++eWlS/dpeSig2faNuVEJzVcJ3TTmCds2NE1aKP7rX/96OPjgg0uvu4TmSK8fveqqq8JFF11UWjAfaLLNYp5UQvNVQr01CZYiXV5P93l++9vfDrvssouBUBHp6frzzjuvdP+oJ+xhqVZNv8cpofkqoUla9M61RFhIepr9yCOPLJXPvn37GghVMX78+FIZvfTSS0tP2wOfMiemS/qDEpq/EvqPmHVt41DWp0+fcNJJJ5Uuu3fr1s1AqImZM2eWLtOfccYZYeLEiQYCH3k55rNFKqFFerz1Nds3hLDmmmuG888/v/Tqxu9+97sKKDWVtre03aXtL22HaXsEitlTilRC/2H7psjWWWedcPHFF4eXX345DB8+3JPutKm0/aXtMG2P6cxov379DIWiK1xPUUIh51ZcccXw61//uvSU8lFHHRU6duxoKNSNtD0effTRYcyYMaXtNG2voIQqoXnziu2bIklnmo4//vgwduzYcNxxxymf1H0ZTdtp2l7TdustXBRQ4XpKkR5MGhTzjG2cIth///3DL3/5S0+707DS0/Q/+MEPwrXXXmsYFMWGMc+mP3g6Pn8ltGvMTNs4eZZK5+9+97uw2267GQa58Oc//zl885vfLJVSyLn0lOisIpXQIl2OTz/YCbZx8ii9XjOdNXr++ecVUHIlbc9pu07bd9rOIacmfFBAi6RIZ0KTe2M+b1snTzbddNPw+9//PgwaNMgwyLVnn302HHHEEeHJJ580DPLmrzFf+OAvnAnNp+dt5+TFMsssE374wx+GRx55RAGlENJ2nrb3tN2n7R9y5LkiftNFK6Ev2M7Jg7Sm4v333x9+/vOfu0RJoaTtPW33afu3tig5MkYJ9ZsG1L2vfvWrYdSoUWGbbbYxDAorbf/pc5A+D6CfKKF+yFBFad3E9JrDyy+/PHTv3t1AKLz0OUifh/S5sK4o+knjKdqDScmkmJVs7zSSNdZYI1x//fVhiy22MAxYhMceeywMGzYsvPHGG4ZBo5kc0/vj/4EHk/y2AXVhp512Kj0NrIDC4qXPR/qcpM8L6CVKaL3y1iQaxmGHHRbuvPPOsPLKKxsGLEX6nKTPS/rcgF6ihNajp23vNIIf/ehH4Q9/+IN3vkMzpM9L+tykzw/oJfWtiPeEbhzzlG2eepXWP7zgggvCUUcdZRjQCpdcckkYPnx4eO+99wyDerbJwkXUu+PzW0LTaaUZ2VeoK+kJ3+uuuy7sueeehgEVcMstt4T9998/zJ071zCoR/Nils2+Fq6Eti/oD3y07R4FFPJvr732Kn2uLOFEnRq9cAEtkvYF/b5djqeudOvWLdx8880KKFRB+lylz1f6nIE+ooS2tZG2e+pFOkNz4403hl133dUwoErS5yt9zpwRRR9RQtvaE7Z76kF6COmKK64IQ4cONQyosvQ5S0/Op88d6CNKaFtJp7/dpU6bO/fcc8NXvvIVg4AaOeCAA0qfO6gDc4PL8YX9wbskT5s69dRTwze/+U2DgBpLn7uf/OQnBkFbGxkKfkKsfYG/90dt/7SVdDbGQRDa9pfA9DkEPUQJbQuP2P5pC5tttln4/e9/bxDQxtLnMH0eQQ9pG0VcrP4DfWPG+QxQS3369AmPP/54WH311Q0D6sCbb74ZNt988zBx4kTDoNbWjhm/qL9hsfr8Sz/4t3wGqJX0RO6IESMUUKgj6fN49dVXe2KeWntrcQW0SNoX/Pt/0OeAWjnllFPCDjvsYBBQZ3bcccfS5xP0j9oq8uX45Nsxv7EZUG0777xzuPPOO0P79u0NA+rQggULwpAhQ8K9995rGNTCsTHnLe5vFuVyfNFL6IYxo3wWqKaePXuG5557Lqy22mqGAXVswoQJYcCAAeHtt982DKpto5hnil5Ci35aZnTMVJ8Fqunss89WQKEBpM9p+rxClU3N+kfhFb2ELoi532ZAtXzpS18Khx9+uEFAg0if1/S5hSq6P+sfSqgRhL8bAdXQo0ePcOGFFxoENJgLLrig9PkFvUMJrba/GQHV8OMf/9hleGhAadmm9PkFvaO6iv5g0gdF/F8xvWwOVMoGG2wQRo0aFTp06GAY0IDmz58fNtxww/DCCy8YBpU0JWblsJTL8R5MKo60IdxjDFRSerhBAYXGlT6/55xzjkFQafcE94MqoQu50wiolKFDh5bWGwQaW/ocp88z6BvV4XJ82Zoxr9ocqMT29sQTT4TBgwcbBuTAyJEjw2abbVaYy6NU3Voxry3tv+RyfLGkDeIfxkBr7bfffgoo5Ej6PKfPNVTAS00poEWihH7kDiOgNdJZUO+fhvxJn+smXlWDJXEpXgldrL8YAa2x2267hUGDBhkE5Ez6XKfPN+gZleWe0I90DeWlE7raLGiJ+++/P2y//fYGATn097//Peywww4GQUvNCuWlIGc15b/sntBibiCWaqJF0n1jCijkV/p8u9+bVrinqQW0SJTQT7rVCGiJb3zjG4YAPuegXzSDy/GftEbM6zYLmmP55ZcPEyZMCN26dTMMyLGZM2eGPn36hHfeeccwaK7PxLzR1P+yy/HFlDaQp42B5jjwwAMVUCiA9Dk/6KCDDILmero5BbRIlNBPu8UIaI6DDz7YEMDnHfSKZnI5/tM2jnnKpkFTrLnmmmH8+PHWEISCSMfMtdZaK7z+uju3aLJNQjOvsrocX1xpQ3nFGGiKfffdVwGFAkmf92HDhhkETfVKcJufEtpM1xkBTbHnnnsaAvjcgz7Rkl/qXI5fpK1iHrZ5sCTLLbdcmDJlSujQoYNhQIHMnz8/9OrVy1PyNMXWMY8093/kcnyxPRos1cRSpLenKKBQPOlz7+1JNMHrWZ9ACW3eLyExNxoDS7LTTjsZAvj8w+LcmPUJlNBmu8YIWJIdd9zREKCgnAlFj2g994Qu4X8aMy5mLZsJC+vYsWOYPn166NSpk2FAAc2dOzd07949zJs3zzBYlFdj1g4tPBPqnlDSFnC1MbAogwYNUkChwNLnP+0HYDGuDi7FK6GtdJURsCgDBw40BLAfMAT0ByW0ap6NGW0MLOyzn/2sIYD9gCGwKKOz/oAS2mpXGgEL69evnyGA/YAhoDcooVXlvg4+ZeWVVzYEsB8wBBbmeRIltKLSE25/MwY+rnfv3oYA9gOGwML+lvUGlNCKudQI+LgePXoYAhRcWqIJ9AUltNpuiHnXGPjAMsssYwhQcF7by0LezfoCSmhFzYwZYQwAwGKMyPoCSmjFOcUOAOgJSmjNPRLzojEAAAsZk/UElNCqudAIAICFXGQESmi1XRYzxxgAgMycrB+ghFbVv2P+ZAwAQOZPWT9ACa26840AANALlNBaezhmlDEAQOGNynoBSmjN/K8RAIA+YARKaK1dFfOOMQBAYb2T9QGU0JpKr+a6xBgAoLAuCV7prYS2kd/ELDAGACicBVkPQAltE+NibjYGACicm7MegBLaZs42AgBw/EcJrbX7Y54yBgAojKey4z9KaJv7tREAgOM+SmitjYh53RgAIPdez477KKF1YV7Mr4wBAHLvrOy4jxJaNy6OmWIMAJBb6ThvjXAltO7MCNYLA4A8+012vEcJrTu/tXECQC7NyI7zKKF1aXIoX5YHAPLl4uw4jxJat86ImW0MAJAbs7PjO0poXZsY3LQMAHlySXZ8Rwmte78Mlm8AgDyYlx3XUUIbwmsxlxoDADS8S7PjOkpowzg9OBsKAI1sXnY8RwltKM6GAkBjcxZUCW1YPwuelAeARjQ7O46jhDakN2POMwYAaDjnZcdxlNCGldYVm2YMANAwpgXrgiqhOZDervArYwCAhvGr4O1ISmhO/DpmkjEAQN2blB23UUJzYXrMacYAAHXvtOy4jRKaG/8bM9YYAKBujc2O1yihuTI35iRjAIC6dVJ2vEYJzZ3rYx40BgCoOw9mx2mU0Nz6nhEAgOMzSmitPR5zlTEAQN24Kjs+o4Tm3snB6zwBoB7Mzo7LKKGF8GrwJgYAqAdnZMdllNBCbfTjjQEA2sz44KSQElpAs2KONwYAaDPHZ8djlNDCuSHmLmMAgJq7KzsOo4QW1ndi5hsDANTM/Oz4ixJaaGNizjYGAKiZs7PjL0po4Z0a85oxAEDVvZYdd1FCiWbEfMsYAKDqvpUdd1FCydwWvLMWAKrp+ux4ixLKQtJN0u8aAwBU3LvBw0hKKIs1IXh1GABUw8nZcRYllMX4XcyjxgAAFfNodnylznQwgrqyIOZrMU/HdDaO+vX888+Ht99+2yCgwCZMcGKtAczJjqsLjKL+tHv//ffz/Q22a9eI/9r/GXO6zRMAWiVdhv9Fo/1L572bKaH1LZ2hfiRmU/sPAGiRJ2O2Cg34ZkIlVAltawNjngpumQCA5krFc5OY0Y34L1+UEurBpPqVPjinGQMANNtpjVpAi8SZ0PrWMebh4LI8ADRVugy/dcy8Rv0GXI5XQutF/5iRMV3tVwBgiWbFDI4Z08jfhMvx1Iv0QTrJGABgqU5q9AJaJM6ENsi3EXNnzC42WQBYpLtjhsY0fLFxOV4JrTerh/JN1j3tZwDgE9LbQ9KqMm/m4ZtxOZ56kz5YxxgDAHzKMXkpoEWihDaWP8VcagwA8KFLs+MjDcbl+MazbMwTofzUPAAUWXoIabOYGXn6plyOp16lD9qBMXOMAoACm5MdD2cYhRJK7YyKOdEYACiwE7LjIQ3K5fgG/tZiborZy2YMQMHcEvPlkIPlmBbFEk1KaCNYIZTfptTX/giAghgfym9FmprXb9A9oTSC9AHcL2auUQBQAHOz495Uo1BCaXtPxnzHGAAogO9kxz1ywOX4/Lgi5lCbNAA59ceYw4rwjbonVAltNGn90EdjBthPAZAzz8VsGQqyHJN7Qmk06YO5b8w0owAgR6ZlxzfrgSqh1LGXQvmS/AKjACAHFmTHtZeMQgml/t0Wc4oxAJADp2THNXLIPaE5/bZjro0ZZhMHoEFdH7N/yOmC9EviwSQltNGlB5UejhlkPwZAg3k2ZutQ0PtAPZhEo0sf3L1jphgFAA1kSnb88iCSEkoDGxfK79adZxQANIB52XFrnFEooTS+B2KOMgYAGsBR2XELJZScSG9TOt0YAKhjp2fHKwrCg0kF+lnH/CmUnzQEgHqSVnQ5IBTwSfhF8XS8EppH3WLuDeVXnwFAPUivnP5CzEyjUEKV0HzrHfNQzLpGAUAbezlmm5hJRlG8Euqe0OJJH/RdfeABcDxCCaXWxsbsHlz6AKBtzMyOQ2ONQgmleJ4I5YeUFhgFADW0IDv+PGEUSijFdXvMfxgDADX0H9nxByWUgrsk5kRjAKAGTsyOO6CEUnJWzC+MAYAq+kV2vIESSzTxcefHDDcGACrsgphjjKFprBOqhBbRMjF/jDnQKACokBExh8a8ZxRKqBLKknSKuS5mT6MAoJVujdkvZq5RKKFKKE0tomnHMdQoAGihO0P5hIYCqoQukgeTWJS0w9gn5q9GAUAL/DU7jiigKKE0W3qbxR6KKAAtKKB7BG/lYylcjmdpusfcE7OFUQCwFI/F7Bwz3ShazuV4KEs7kqHZjgUAllRAhyqgKKFU0rTsN1uX5gFYlL9mx4lpRoESSqWl32zdIwrAogroHsEZUJRQquiDh5XuNAoAsuOBh5BQQqlZEU3rvt1qFACFdmt2PFBAUUKpmbTuW3oDxgijACikEcGbkFBCacMimt4FfIFRABTKBdn+XwFFCaXNvBdzTMwvjAKgEH6R7fffMwpay2L1VMoJMWcaA0BunRhzljFUX1EWq1dCqaSjYi4MzrAD5MmCmP+IucQolFAlVAmtZ7vHXBvTzSgAGl568n3/mNuNQglVQpXQRrBZtsPqbRQADWtSKJ9YeMIolNBqcNmUakg7rK1jXjYKgIb0crYfV0BRQmk4Y2O2iXnUKAAayqPZ/nusUaCE0qjSpZwvhPI9ogDUv2uz/fYko0AJpdGlm9oPiDndKADq2unZ/tprOKkJDyZRS4eF8hIfHY0CoG7MC+Ul9q4wivrg6XgllOrYLuammF5GAdDmpsR8OeYBo1BCa83leGot7eg2j3nWKADa1LPZ/lgBRQmlMMaF8tIf1xsFQJu4PtsPjzMKlFCKZkYov4Xjh6H8SjgAqm9Btt/dP9sPQ5txTyj1YI+YP8YsbxQAVTMt5tCY24yivnkwSQmlttaLuSFmgFEAVNxzMfvGvGQUSmi9cDmeepF2jFuG8hlRACrnj9n+VQFFCYXFSPcnpbVEj4mZaxwArTI3258eFtz/SR1yOZ56tWnMdTF9jQKg2cbH7BfzpFE0HpfjoW2lHefgmFuMAqBZbsn2nwooSii00NRQfpPHd2LmGAfAEqX95LHZfnOqcVDvXI6nUWwUMyKmv1EAfMqYmANjRhlF43M5HupL2rFuFnOpUQB8wqXZ/lEBpaE4E0ojOiDm/JieRgEU2Nuh/PT7n4wiXyxWr4RS31aPuSxmF6MACujumK/FvGkUSmijcjmeRpV2vEND+aGlWcYBFMSsbL83VAGl0TkTSh6kh5XSG0E2NQogx9KSS+nd72OMIt+cCYXGkXbIW8f8NGa+cQA5Mz/bv22tgJInzoSSNwND+V5RZ0WBPEhnP78WM9ooisOZUGhMaUe9VczJwQL3QOOak+3HtlJAyStnQsmzdK/oZTFbGgXQQB4N5bOfLr0XlDOh0PjSDnybUH6N3bvGAdS5d7P91TYKKEXgTChFsVrMuTHDjAKoQ9eH8tJLE4wCZ0IhX9KOfb+YPWNeMw6gTryW7Zf2U0ApGiWUorktZoOYs4LlnIC2Mz/bD22Q7ZegcFyOp8jSg0vpEv0QowBq6K5QvvTuvk8WyeV4yL90AEivvkv3iY43DqDKxmf7m6EKKCihkNwQypfE0htJZhsHUGGzs/3LBtn+Bggux8PC1oo5PeZgowAq4KpQXnT+VaOgqYpyOV4JhUXbPObXMdsaBdACD8Z8L+Zxo0AJXTSX42HR0oFju1BeNmWscQBNNDbbb2yngIISCq2RFpBO93EdFzPJOIDFmJTtJzbI9hvAUrgcD03XPZQvrx0fs7xxANG0mF+F8u07042DSnBPqBIKi7NSzEkx347pYhxQSOmJ9/NizoiZbBwooUqoEkotrR5zSsyRMR2NAwphXsylMT+LedM4UEKVUCWUtrRmKC/BooxC/stnWsLtNeNACVVClVDqrYz+IOao4DI95EW67H5JzC+VT5RQJVQJpd71CeV7Ro+OWdY4oCHNiLk4lO/5nGgcKKFKqBJKI0kPMH0r5tiYXsYBDWFKzG9ifhs8cIQSqoQqoTS4tLRTukSflnb6jHFAXXo9lJdaSmc/ZxgHSqgSqoSSJ+mhpQNDea3RTYwD6sJTobzG54hQfvgIlFAlVAkl13YI5ber7B28uQxqbUHMzTFnx9xvHCihSqgSShGtHcr3jKbL9csZB1TVO6H8pHu653OccaCEKqFKKITQI+bgmG/EbGQcUFGjYv435qqYd40DJVQJVUJh0baOOSbmgJjOxgEtMifmTzHnxzxsHCihSqgSCk23YszXYv4j5nPGAU3yYsyFMZfF/Ns4UEKVUCUUWmerUH4taHq6vodxwCekS+zp6fb0Ws1HjAMlVAlVQqHyusXsmxXSndImbiQU9Tgd87eseN4QM9NIUEKVUCUUamOtmINiDokZaBwUxOiYK2OujnnVOFBClVAlFNrWoFB+uv6grJxCnryalc70dPuzxoESqoQqoVCHm3zMNqH8ZP2Xg9eE0rjSazRvCuUn3B8K5cvvoIQqoUooNEgh3TJmn5j9YvoZCXXulZjrYm6MeVTxRAlVQpVQyIf0vvp0dnSvmI2NgzrxdMwtoXzW8ynjACVUCYV8WyNm95g9Y3aO6Wok1MismHtibo25PeYNIwElVAmFYkoF9Asxu8Z8MeazRkKF/SPmjpi/xNybFVFACVVCgU9YM2ZIzNBQPkvay0hopimhfLbzzpi7Yl4zElBClVCgOdqH8r2kn4/ZLmaHmBWMhYVMjbk/5oGYv4byvZ0LjAWUUCUUqGQpHZiV0Z1ito1Z1VgK562YB0P5jUWpfI5WOkEJVUKVUKi1vqH8bvuUtCTU4JhOxpIbc2NGhvKSSY9kGW8soIQqoUoo1JtUQNMl/M2yQpr+nM6edjSaujcvlM9qPpUVzyeyP881GlBClVAlFBpRKqADslKa1ijdMPvrlYymzUyOeS7mmVBeq3Nk9tfzjAaUUCVUCYW8652V0ZT1YzaI+VzMakZTMRNiXox5PuaFrGimTDIaUEKVUCUU+KS0dum6WdLrRj+bJS0f9ZmYzkb0oTmh/J71tAzSP7Kk11++nMWanKCEKqFKKFAhq4TyW5/W/NjX1UP58n6fUD7DmtK+gb/H9LT5pCwTQ/ny+ZtZ2XzjY1//aXMAJVQJVUKB+tE+K6IrZV97hvIapz0/lvTXy4Xymdd0dnX5UH6watmYbuGjp/y7hKadfU1nJWdnf04P88yMmZH9eVr299OZyXdCeW3Ntz+WD/56UlY4JwXLHoESqoQCAEBlzxQAAIASCgCAEgoAAEooAABKKAAAKKEAACihAACghAIAoIQCAKCEAgCAEgoAgBIKAABKKAAASigAACihAAAooQAAKKEAAKCEAgCghAIAgBIKAIASCgAASigAAEooAAAooQAAKKEAACihAACghAIAoIQCAIASCgCAEgoAAEooAABKKAAAKKEAACihAAAooQAAoIQCAKCEAgCAEgoAgBIKAABKKAAASigAAEooAAAooQAAKKEAAKCEAgCghAIAgBIKAIASCgAASigAAEooAABKKAAAKKEAACihAACghAIAoIQCAIASCgCAEgoAQCH9fwEGAJwPQgf/FLYaAAAAAElFTkSuQmCC;" vertex="1" parent="1">
          <mxGeometry x="1050" y="43.5" width="143" height="143" as="geometry" />
        </mxCell>
        <mxCell id="Y-vvo44MhsxP3mwZvi4m-17" value="&lt;font style=&quot;font-size: 23px&quot;&gt;&lt;span style=&quot;white-space: pre&quot;&gt;	&lt;/span&gt;&lt;span style=&quot;white-space: pre&quot;&gt;	&lt;/span&gt;&lt;span style=&quot;white-space: pre&quot;&gt;	&lt;/span&gt;Video Name / ID 1&lt;/font&gt;" style="rounded=0;whiteSpace=wrap;html=1;align=left;" vertex="1" parent="1">
          <mxGeometry x="40" y="190" width="1157" height="100" as="geometry" />
        </mxCell>
        <mxCell id="Y-vvo44MhsxP3mwZvi4m-26" value="" style="shape=image;verticalLabelPosition=bottom;labelBackgroundColor=#ffffff;verticalAlign=top;aspect=fixed;imageAspect=0;image=data:image/png,iVBORw0KGgoAAAANSUhEUgAAADAAAAAwCAQAAAD9CzEMAAABwElEQVRYw+2Xv2oCQRDGf4qNcGLQKsh1Yp9KuMpnSKEvkMrrg911hjzAWeQZTKWF2OQJ0miZTokKCumCEsimyN1yenfeadiFgLPl9+3M/plvdhYu9h8sQ50OfSYsEAgWTOjToU7m784rPDBHxIw5D1TOd17CZRvr3B9bXErnuG+ySXTujw3N05zn6O052DHGpkEVA4MqDWzG7PY4PXJp3ecZBCausClE8grYrALMAfl0qx8GztfBOMo2cAL3NEyzi15g7VaqHVuBffSSyC1JnWKmvjOTqZzXOkYss5arN09KC1PuYk05nubKs7dOTmtL3oUbr1qf4oSwZ64TQzhyeTHq7nqEZUTmCD64SwhgsPQ8dKPgLDMPbkegv8gL1aMh2h5vRjYM1qVqi7EBBJ/cH8n1olR3PQx2PGgUOTVYFF65iQ0x8jidMNT3IDsxgOCLx5iyYHuMfhjypdJIEUAgeItkNqRMQ+ZLrJYygOCbJ64OeDUpt5D5GiikDiAQvHN7UGF9LegPoPyIlF+y8jRVLjTlpUJ5sVNerjU8OMqfTA2PvvK2RUPjpaF1VN78amjfNXxAtHyhNHwCtXxjL6befgAU8kN9b9szqgAAAABJRU5ErkJggg==;" vertex="1" parent="1">
          <mxGeometry x="80" y="203" width="74" height="74" as="geometry" />
        </mxCell>
        <mxCell id="Y-vvo44MhsxP3mwZvi4m-27" value="" style="shape=image;verticalLabelPosition=bottom;labelBackgroundColor=#ffffff;verticalAlign=top;aspect=fixed;imageAspect=0;image=data:image/png,iVBORw0KGgoAAAANSUhEUgAAADAAAAAwCAQAAAD9CzEMAAAAuUlEQVRYw+2UqwGDQBAFXyERyEgKoB9EBKVcASkiBVBISog8gYzYCMLnLtwn7Mo3a07ADJxYgBDyH/IdBhhggIGIHtdkoMNNqx8geK2JMNBhgmDQ6mWX2AdmvegSblXOiS2w6QVO8w9hYjmb6ePEcjLUh4l4TPTphJn+OGGq/02Y68OESp/bNy6jr95T+Qdd8uuNAgbvMVBkSi6GmnmWA6MqcC8HWrxP6z0uNbfZYjxxUR4PNCCEHPAB4WxOxL3jBKIAAAAASUVORK5CYII=;" vertex="1" parent="1">
          <mxGeometry x="990" y="209" width="68" height="68" as="geometry" />
        </mxCell>
        <mxCell id="Y-vvo44MhsxP3mwZvi4m-28" value="" style="shape=image;verticalLabelPosition=bottom;labelBackgroundColor=#ffffff;verticalAlign=top;aspect=fixed;imageAspect=0;image=data:image/png,iVBORw0KGgoAAAANSUhEUgAAADAAAAAwCAQAAAD9CzEMAAAAYklEQVRYw+3VsQ3AIAxE0duDYZnGo0HFDmSBSNgGUkT/06J7Eg0S0TdVzZdT785vETN5AM4B/+j68wC4gVP3AAAAAAAAAHJAC335LQ5YCLA4UDTc80NFyhCmvhzvstw8kbcHgDjepK6bn4cAAAAASUVORK5CYII=;" vertex="1" parent="1">
          <mxGeometry x="1058" y="213.5" width="59" height="59" as="geometry" />
        </mxCell>
        <mxCell id="Y-vvo44MhsxP3mwZvi4m-29" value="" style="shape=image;verticalLabelPosition=bottom;labelBackgroundColor=#ffffff;verticalAlign=top;aspect=fixed;imageAspect=0;image=data:image/png,iVBORw0KGgoAAAANSUhEUgAAADAAAAAwCAQAAAD9CzEMAAACo0lEQVRYw+2Xv0tbURTHPyUSmlqkEA3BFJFOgptLoi1UpIODBR0DDkKXlFpBslis6KISELJkcxb8FxxcBKF0C9GiswRDuxh/Vom8Dj25edf33tWk7w0Fz1vePfd7ftx7zz3nXHik/4W2sO58W36qjzrUW1hE/TOQdDWQ9M/ApKuBSf8MLInKFQDWZLTkn4ENUTkFQEZGG60pG6HMJiNq3ME8VVE5BMA7GVWZp8Mmt0nZJudBYQ5F/JAsnYxzbNv1GAC9Nk6FCTrJ2qTCZgNZ7RhvtFFVMCF+G1BZk/oYJ67xYlFhmR6Fe0WOXx7IE1mnK60L6Jwrm8glc0Qc2Ha+aiu54FT+1r3UD3ArkGmizHKAhUWRPk+H+vkhmE90MCPStwy4w3cEUKJNOMMsKN/7ybPPGWfsk6dfuM9ZZFD+29gXDTtu6kfVYnfpcsRWgZq20zUKjniJ813NjzoNpLhW00ekNPXbrse5rZkYpKxmrt3zVJIjGySj+AWPeLEoKExGcy/pHaZ2X8dk72tKME2cOGnlSE3OYkxbV8x0E0LkFPRvYsgr9VFbfaibyAMwpGRyhO7PRnXhlwDsySitYdLC3QMgoZx4EF0K/CmAuj7dGqZbuKcSoPUr2ZSB8IMNhJszUN+iRBBbFPAh62H63u8wtV+0G2b8vmhJG6TMm6ZTRUrLA0lTsvtGvKVk18WuKdk10nVRHdRrFmk3pusICwyrdF0ypWt7wfnICz4LvGQoOH0UsbA4YJYo0/cVnEbJrKrLZmFxxReeObAR5u6gzu8rmaai/5NVehWuh2UqrRR9c9tywRNBVVttW5yN14TmaULW2eAcM95c42VuHd9qiaGl1tHc/H4AYOrfml9T+74KwIr/7XvgD5DAn1CBPwIDf8Y+UpD0Bwg0vBIrUMm0AAAAAElFTkSuQmCC;" vertex="1" parent="1">
          <mxGeometry x="1130" y="218" width="50" height="50" as="geometry" />
        </mxCell>
        <mxCell id="Y-vvo44MhsxP3mwZvi4m-47" value="&lt;font style=&quot;font-size: 23px&quot;&gt;&lt;span style=&quot;white-space: pre&quot;&gt;	&lt;/span&gt;&lt;span style=&quot;white-space: pre&quot;&gt;	&lt;/span&gt;&lt;span style=&quot;white-space: pre&quot;&gt;	&lt;/span&gt;Video Name / ID 2&lt;/font&gt;" style="rounded=0;whiteSpace=wrap;html=1;align=left;" vertex="1" parent="1">
          <mxGeometry x="40" y="290" width="1157" height="100" as="geometry" />
        </mxCell>
        <mxCell id="Y-vvo44MhsxP3mwZvi4m-48" value="" style="shape=image;verticalLabelPosition=bottom;labelBackgroundColor=#ffffff;verticalAlign=top;aspect=fixed;imageAspect=0;image=data:image/png,iVBORw0KGgoAAAANSUhEUgAAADAAAAAwCAQAAAD9CzEMAAABwElEQVRYw+2Xv2oCQRDGf4qNcGLQKsh1Yp9KuMpnSKEvkMrrg911hjzAWeQZTKWF2OQJ0miZTokKCumCEsimyN1yenfeadiFgLPl9+3M/plvdhYu9h8sQ50OfSYsEAgWTOjToU7m784rPDBHxIw5D1TOd17CZRvr3B9bXErnuG+ySXTujw3N05zn6O052DHGpkEVA4MqDWzG7PY4PXJp3ecZBCausClE8grYrALMAfl0qx8GztfBOMo2cAL3NEyzi15g7VaqHVuBffSSyC1JnWKmvjOTqZzXOkYss5arN09KC1PuYk05nubKs7dOTmtL3oUbr1qf4oSwZ64TQzhyeTHq7nqEZUTmCD64SwhgsPQ8dKPgLDMPbkegv8gL1aMh2h5vRjYM1qVqi7EBBJ/cH8n1olR3PQx2PGgUOTVYFF65iQ0x8jidMNT3IDsxgOCLx5iyYHuMfhjypdJIEUAgeItkNqRMQ+ZLrJYygOCbJ64OeDUpt5D5GiikDiAQvHN7UGF9LegPoPyIlF+y8jRVLjTlpUJ5sVNerjU8OMqfTA2PvvK2RUPjpaF1VN78amjfNXxAtHyhNHwCtXxjL6befgAU8kN9b9szqgAAAABJRU5ErkJggg==;" vertex="1" parent="1">
          <mxGeometry x="80" y="303" width="74" height="74" as="geometry" />
        </mxCell>
        <mxCell id="Y-vvo44MhsxP3mwZvi4m-49" value="" style="shape=image;verticalLabelPosition=bottom;labelBackgroundColor=#ffffff;verticalAlign=top;aspect=fixed;imageAspect=0;image=data:image/png,iVBORw0KGgoAAAANSUhEUgAAADAAAAAwCAQAAAD9CzEMAAAAuUlEQVRYw+2UqwGDQBAFXyERyEgKoB9EBKVcASkiBVBISog8gYzYCMLnLtwn7Mo3a07ADJxYgBDyH/IdBhhggIGIHtdkoMNNqx8geK2JMNBhgmDQ6mWX2AdmvegSblXOiS2w6QVO8w9hYjmb6ePEcjLUh4l4TPTphJn+OGGq/02Y68OESp/bNy6jr95T+Qdd8uuNAgbvMVBkSi6GmnmWA6MqcC8HWrxP6z0uNbfZYjxxUR4PNCCEHPAB4WxOxL3jBKIAAAAASUVORK5CYII=;" vertex="1" parent="1">
          <mxGeometry x="990" y="309" width="68" height="68" as="geometry" />
        </mxCell>
        <mxCell id="Y-vvo44MhsxP3mwZvi4m-50" value="" style="shape=image;verticalLabelPosition=bottom;labelBackgroundColor=#ffffff;verticalAlign=top;aspect=fixed;imageAspect=0;image=data:image/png,iVBORw0KGgoAAAANSUhEUgAAADAAAAAwCAQAAAD9CzEMAAAAYklEQVRYw+3VsQ3AIAxE0duDYZnGo0HFDmSBSNgGUkT/06J7Eg0S0TdVzZdT785vETN5AM4B/+j68wC4gVP3AAAAAAAAAHJAC335LQ5YCLA4UDTc80NFyhCmvhzvstw8kbcHgDjepK6bn4cAAAAASUVORK5CYII=;" vertex="1" parent="1">
          <mxGeometry x="1058" y="313.5" width="59" height="59" as="geometry" />
        </mxCell>
        <mxCell id="Y-vvo44MhsxP3mwZvi4m-51" value="" style="shape=image;verticalLabelPosition=bottom;labelBackgroundColor=#ffffff;verticalAlign=top;aspect=fixed;imageAspect=0;image=data:image/png,iVBORw0KGgoAAAANSUhEUgAAADAAAAAwCAQAAAD9CzEMAAACo0lEQVRYw+2Xv0tbURTHPyUSmlqkEA3BFJFOgptLoi1UpIODBR0DDkKXlFpBslis6KISELJkcxb8FxxcBKF0C9GiswRDuxh/Vom8Dj25edf33tWk7w0Fz1vePfd7ftx7zz3nXHik/4W2sO58W36qjzrUW1hE/TOQdDWQ9M/ApKuBSf8MLInKFQDWZLTkn4ENUTkFQEZGG60pG6HMJiNq3ME8VVE5BMA7GVWZp8Mmt0nZJudBYQ5F/JAsnYxzbNv1GAC9Nk6FCTrJ2qTCZgNZ7RhvtFFVMCF+G1BZk/oYJ67xYlFhmR6Fe0WOXx7IE1mnK60L6Jwrm8glc0Qc2Ha+aiu54FT+1r3UD3ArkGmizHKAhUWRPk+H+vkhmE90MCPStwy4w3cEUKJNOMMsKN/7ybPPGWfsk6dfuM9ZZFD+29gXDTtu6kfVYnfpcsRWgZq20zUKjniJ813NjzoNpLhW00ekNPXbrse5rZkYpKxmrt3zVJIjGySj+AWPeLEoKExGcy/pHaZ2X8dk72tKME2cOGnlSE3OYkxbV8x0E0LkFPRvYsgr9VFbfaibyAMwpGRyhO7PRnXhlwDsySitYdLC3QMgoZx4EF0K/CmAuj7dGqZbuKcSoPUr2ZSB8IMNhJszUN+iRBBbFPAh62H63u8wtV+0G2b8vmhJG6TMm6ZTRUrLA0lTsvtGvKVk18WuKdk10nVRHdRrFmk3pusICwyrdF0ypWt7wfnICz4LvGQoOH0UsbA4YJYo0/cVnEbJrKrLZmFxxReeObAR5u6gzu8rmaai/5NVehWuh2UqrRR9c9tywRNBVVttW5yN14TmaULW2eAcM95c42VuHd9qiaGl1tHc/H4AYOrfml9T+74KwIr/7XvgD5DAn1CBPwIDf8Y+UpD0Bwg0vBIrUMm0AAAAAElFTkSuQmCC;" vertex="1" parent="1">
          <mxGeometry x="1130" y="318" width="50" height="50" as="geometry" />
        </mxCell>
        <mxCell id="Y-vvo44MhsxP3mwZvi4m-52" value="&lt;font style=&quot;font-size: 23px&quot;&gt;&lt;span style=&quot;white-space: pre&quot;&gt;	&lt;/span&gt;&lt;span style=&quot;white-space: pre&quot;&gt;	&lt;/span&gt;&lt;span style=&quot;white-space: pre&quot;&gt;	&lt;/span&gt;Video Name / ID 3&lt;/font&gt;" style="rounded=0;whiteSpace=wrap;html=1;align=left;" vertex="1" parent="1">
          <mxGeometry x="40" y="390" width="1157" height="100" as="geometry" />
        </mxCell>
        <mxCell id="Y-vvo44MhsxP3mwZvi4m-53" value="" style="shape=image;verticalLabelPosition=bottom;labelBackgroundColor=#ffffff;verticalAlign=top;aspect=fixed;imageAspect=0;image=data:image/png,iVBORw0KGgoAAAANSUhEUgAAADAAAAAwCAQAAAD9CzEMAAABwElEQVRYw+2Xv2oCQRDGf4qNcGLQKsh1Yp9KuMpnSKEvkMrrg911hjzAWeQZTKWF2OQJ0miZTokKCumCEsimyN1yenfeadiFgLPl9+3M/plvdhYu9h8sQ50OfSYsEAgWTOjToU7m784rPDBHxIw5D1TOd17CZRvr3B9bXErnuG+ySXTujw3N05zn6O052DHGpkEVA4MqDWzG7PY4PXJp3ecZBCausClE8grYrALMAfl0qx8GztfBOMo2cAL3NEyzi15g7VaqHVuBffSSyC1JnWKmvjOTqZzXOkYss5arN09KC1PuYk05nubKs7dOTmtL3oUbr1qf4oSwZ64TQzhyeTHq7nqEZUTmCD64SwhgsPQ8dKPgLDMPbkegv8gL1aMh2h5vRjYM1qVqi7EBBJ/cH8n1olR3PQx2PGgUOTVYFF65iQ0x8jidMNT3IDsxgOCLx5iyYHuMfhjypdJIEUAgeItkNqRMQ+ZLrJYygOCbJ64OeDUpt5D5GiikDiAQvHN7UGF9LegPoPyIlF+y8jRVLjTlpUJ5sVNerjU8OMqfTA2PvvK2RUPjpaF1VN78amjfNXxAtHyhNHwCtXxjL6befgAU8kN9b9szqgAAAABJRU5ErkJggg==;" vertex="1" parent="1">
          <mxGeometry x="80" y="403" width="74" height="74" as="geometry" />
        </mxCell>
        <mxCell id="Y-vvo44MhsxP3mwZvi4m-54" value="" style="shape=image;verticalLabelPosition=bottom;labelBackgroundColor=#ffffff;verticalAlign=top;aspect=fixed;imageAspect=0;image=data:image/png,iVBORw0KGgoAAAANSUhEUgAAADAAAAAwCAQAAAD9CzEMAAAAuUlEQVRYw+2UqwGDQBAFXyERyEgKoB9EBKVcASkiBVBISog8gYzYCMLnLtwn7Mo3a07ADJxYgBDyH/IdBhhggIGIHtdkoMNNqx8geK2JMNBhgmDQ6mWX2AdmvegSblXOiS2w6QVO8w9hYjmb6ePEcjLUh4l4TPTphJn+OGGq/02Y68OESp/bNy6jr95T+Qdd8uuNAgbvMVBkSi6GmnmWA6MqcC8HWrxP6z0uNbfZYjxxUR4PNCCEHPAB4WxOxL3jBKIAAAAASUVORK5CYII=;" vertex="1" parent="1">
          <mxGeometry x="990" y="409" width="68" height="68" as="geometry" />
        </mxCell>
        <mxCell id="Y-vvo44MhsxP3mwZvi4m-55" value="" style="shape=image;verticalLabelPosition=bottom;labelBackgroundColor=#ffffff;verticalAlign=top;aspect=fixed;imageAspect=0;image=data:image/png,iVBORw0KGgoAAAANSUhEUgAAADAAAAAwCAQAAAD9CzEMAAAAYklEQVRYw+3VsQ3AIAxE0duDYZnGo0HFDmSBSNgGUkT/06J7Eg0S0TdVzZdT785vETN5AM4B/+j68wC4gVP3AAAAAAAAAHJAC335LQ5YCLA4UDTc80NFyhCmvhzvstw8kbcHgDjepK6bn4cAAAAASUVORK5CYII=;" vertex="1" parent="1">
          <mxGeometry x="1058" y="413.5" width="59" height="59" as="geometry" />
        </mxCell>
        <mxCell id="Y-vvo44MhsxP3mwZvi4m-56" value="" style="shape=image;verticalLabelPosition=bottom;labelBackgroundColor=#ffffff;verticalAlign=top;aspect=fixed;imageAspect=0;image=data:image/png,iVBORw0KGgoAAAANSUhEUgAAADAAAAAwCAQAAAD9CzEMAAACo0lEQVRYw+2Xv0tbURTHPyUSmlqkEA3BFJFOgptLoi1UpIODBR0DDkKXlFpBslis6KISELJkcxb8FxxcBKF0C9GiswRDuxh/Vom8Dj25edf33tWk7w0Fz1vePfd7ftx7zz3nXHik/4W2sO58W36qjzrUW1hE/TOQdDWQ9M/ApKuBSf8MLInKFQDWZLTkn4ENUTkFQEZGG60pG6HMJiNq3ME8VVE5BMA7GVWZp8Mmt0nZJudBYQ5F/JAsnYxzbNv1GAC9Nk6FCTrJ2qTCZgNZ7RhvtFFVMCF+G1BZk/oYJ67xYlFhmR6Fe0WOXx7IE1mnK60L6Jwrm8glc0Qc2Ha+aiu54FT+1r3UD3ArkGmizHKAhUWRPk+H+vkhmE90MCPStwy4w3cEUKJNOMMsKN/7ybPPGWfsk6dfuM9ZZFD+29gXDTtu6kfVYnfpcsRWgZq20zUKjniJ813NjzoNpLhW00ekNPXbrse5rZkYpKxmrt3zVJIjGySj+AWPeLEoKExGcy/pHaZ2X8dk72tKME2cOGnlSE3OYkxbV8x0E0LkFPRvYsgr9VFbfaibyAMwpGRyhO7PRnXhlwDsySitYdLC3QMgoZx4EF0K/CmAuj7dGqZbuKcSoPUr2ZSB8IMNhJszUN+iRBBbFPAh62H63u8wtV+0G2b8vmhJG6TMm6ZTRUrLA0lTsvtGvKVk18WuKdk10nVRHdRrFmk3pusICwyrdF0ypWt7wfnICz4LvGQoOH0UsbA4YJYo0/cVnEbJrKrLZmFxxReeObAR5u6gzu8rmaai/5NVehWuh2UqrRR9c9tywRNBVVttW5yN14TmaULW2eAcM95c42VuHd9qiaGl1tHc/H4AYOrfml9T+74KwIr/7XvgD5DAn1CBPwIDf8Y+UpD0Bwg0vBIrUMm0AAAAAElFTkSuQmCC;" vertex="1" parent="1">
          <mxGeometry x="1130" y="418" width="50" height="50" as="geometry" />
        </mxCell>
        <mxCell id="Y-vvo44MhsxP3mwZvi4m-57" value="&lt;font style=&quot;font-size: 23px&quot;&gt;&lt;span style=&quot;white-space: pre&quot;&gt;	&lt;/span&gt;&lt;span style=&quot;white-space: pre&quot;&gt;	&lt;/span&gt;&lt;span style=&quot;white-space: pre&quot;&gt;	&lt;/span&gt;Video Name / ID 4&lt;/font&gt;" style="rounded=0;whiteSpace=wrap;html=1;align=left;" vertex="1" parent="1">
          <mxGeometry x="40" y="490" width="1157" height="100" as="geometry" />
        </mxCell>
        <mxCell id="Y-vvo44MhsxP3mwZvi4m-58" value="" style="shape=image;verticalLabelPosition=bottom;labelBackgroundColor=#ffffff;verticalAlign=top;aspect=fixed;imageAspect=0;image=data:image/png,iVBORw0KGgoAAAANSUhEUgAAADAAAAAwCAQAAAD9CzEMAAABwElEQVRYw+2Xv2oCQRDGf4qNcGLQKsh1Yp9KuMpnSKEvkMrrg911hjzAWeQZTKWF2OQJ0miZTokKCumCEsimyN1yenfeadiFgLPl9+3M/plvdhYu9h8sQ50OfSYsEAgWTOjToU7m784rPDBHxIw5D1TOd17CZRvr3B9bXErnuG+ySXTujw3N05zn6O052DHGpkEVA4MqDWzG7PY4PXJp3ecZBCausClE8grYrALMAfl0qx8GztfBOMo2cAL3NEyzi15g7VaqHVuBffSSyC1JnWKmvjOTqZzXOkYss5arN09KC1PuYk05nubKs7dOTmtL3oUbr1qf4oSwZ64TQzhyeTHq7nqEZUTmCD64SwhgsPQ8dKPgLDMPbkegv8gL1aMh2h5vRjYM1qVqi7EBBJ/cH8n1olR3PQx2PGgUOTVYFF65iQ0x8jidMNT3IDsxgOCLx5iyYHuMfhjypdJIEUAgeItkNqRMQ+ZLrJYygOCbJ64OeDUpt5D5GiikDiAQvHN7UGF9LegPoPyIlF+y8jRVLjTlpUJ5sVNerjU8OMqfTA2PvvK2RUPjpaF1VN78amjfNXxAtHyhNHwCtXxjL6befgAU8kN9b9szqgAAAABJRU5ErkJggg==;" vertex="1" parent="1">
          <mxGeometry x="80" y="503" width="74" height="74" as="geometry" />
        </mxCell>
        <mxCell id="Y-vvo44MhsxP3mwZvi4m-59" value="" style="shape=image;verticalLabelPosition=bottom;labelBackgroundColor=#ffffff;verticalAlign=top;aspect=fixed;imageAspect=0;image=data:image/png,iVBORw0KGgoAAAANSUhEUgAAADAAAAAwCAQAAAD9CzEMAAAAuUlEQVRYw+2UqwGDQBAFXyERyEgKoB9EBKVcASkiBVBISog8gYzYCMLnLtwn7Mo3a07ADJxYgBDyH/IdBhhggIGIHtdkoMNNqx8geK2JMNBhgmDQ6mWX2AdmvegSblXOiS2w6QVO8w9hYjmb6ePEcjLUh4l4TPTphJn+OGGq/02Y68OESp/bNy6jr95T+Qdd8uuNAgbvMVBkSi6GmnmWA6MqcC8HWrxP6z0uNbfZYjxxUR4PNCCEHPAB4WxOxL3jBKIAAAAASUVORK5CYII=;" vertex="1" parent="1">
          <mxGeometry x="990" y="509" width="68" height="68" as="geometry" />
        </mxCell>
        <mxCell id="Y-vvo44MhsxP3mwZvi4m-60" value="" style="shape=image;verticalLabelPosition=bottom;labelBackgroundColor=#ffffff;verticalAlign=top;aspect=fixed;imageAspect=0;image=data:image/png,iVBORw0KGgoAAAANSUhEUgAAADAAAAAwCAQAAAD9CzEMAAAAYklEQVRYw+3VsQ3AIAxE0duDYZnGo0HFDmSBSNgGUkT/06J7Eg0S0TdVzZdT785vETN5AM4B/+j68wC4gVP3AAAAAAAAAHJAC335LQ5YCLA4UDTc80NFyhCmvhzvstw8kbcHgDjepK6bn4cAAAAASUVORK5CYII=;" vertex="1" parent="1">
          <mxGeometry x="1058" y="513.5" width="59" height="59" as="geometry" />
        </mxCell>
        <mxCell id="Y-vvo44MhsxP3mwZvi4m-61" value="" style="shape=image;verticalLabelPosition=bottom;labelBackgroundColor=#ffffff;verticalAlign=top;aspect=fixed;imageAspect=0;image=data:image/png,iVBORw0KGgoAAAANSUhEUgAAADAAAAAwCAQAAAD9CzEMAAACo0lEQVRYw+2Xv0tbURTHPyUSmlqkEA3BFJFOgptLoi1UpIODBR0DDkKXlFpBslis6KISELJkcxb8FxxcBKF0C9GiswRDuxh/Vom8Dj25edf33tWk7w0Fz1vePfd7ftx7zz3nXHik/4W2sO58W36qjzrUW1hE/TOQdDWQ9M/ApKuBSf8MLInKFQDWZLTkn4ENUTkFQEZGG60pG6HMJiNq3ME8VVE5BMA7GVWZp8Mmt0nZJudBYQ5F/JAsnYxzbNv1GAC9Nk6FCTrJ2qTCZgNZ7RhvtFFVMCF+G1BZk/oYJ67xYlFhmR6Fe0WOXx7IE1mnK60L6Jwrm8glc0Qc2Ha+aiu54FT+1r3UD3ArkGmizHKAhUWRPk+H+vkhmE90MCPStwy4w3cEUKJNOMMsKN/7ybPPGWfsk6dfuM9ZZFD+29gXDTtu6kfVYnfpcsRWgZq20zUKjniJ813NjzoNpLhW00ekNPXbrse5rZkYpKxmrt3zVJIjGySj+AWPeLEoKExGcy/pHaZ2X8dk72tKME2cOGnlSE3OYkxbV8x0E0LkFPRvYsgr9VFbfaibyAMwpGRyhO7PRnXhlwDsySitYdLC3QMgoZx4EF0K/CmAuj7dGqZbuKcSoPUr2ZSB8IMNhJszUN+iRBBbFPAh62H63u8wtV+0G2b8vmhJG6TMm6ZTRUrLA0lTsvtGvKVk18WuKdk10nVRHdRrFmk3pusICwyrdF0ypWt7wfnICz4LvGQoOH0UsbA4YJYo0/cVnEbJrKrLZmFxxReeObAR5u6gzu8rmaai/5NVehWuh2UqrRR9c9tywRNBVVttW5yN14TmaULW2eAcM95c42VuHd9qiaGl1tHc/H4AYOrfml9T+74KwIr/7XvgD5DAn1CBPwIDf8Y+UpD0Bwg0vBIrUMm0AAAAAElFTkSuQmCC;" vertex="1" parent="1">
          <mxGeometry x="1130" y="518" width="50" height="50" as="geometry" />
        </mxCell>
      </root>
    </mxGraphModel>
  </diagram>
</mxfile>
